<?xml version="1.0" encoding="utf-8"?>
<!-- Generator: Adobe Illustrator 16.0.0, SVG Export Plug-In . SVG Version: 6.00 Build 0)  -->
<!DOCTYPE svg PUBLIC "-//W3C//DTD SVG 1.1//EN" "http://www.w3.org/Graphics/SVG/1.1/DTD/svg11.dtd">
<svg version="1.1" id="Layer_1" xmlns="http://www.w3.org/2000/svg" xmlns:xlink="http://www.w3.org/1999/xlink" x="0px" y="0px"
	 width="1658.169px" height="251px" viewBox="0 0 1658.169 251" enable-background="new 0 0 1658.169 251" xml:space="preserve">
<g>
	<path d="M393.789,21.408v19.256h-41.723v189.362h-22.466V40.664h-41.724V21.408H393.789z"/>
	<path d="M514.144,189.906v-17.653h22.467v17.653c0,14.338-4.389,25.41-13.159,33.218c-8.776,7.81-21.935,11.716-39.477,11.716
		c-17.546,0-30.812-3.906-39.798-11.716c-8.986-7.808-13.479-18.88-13.479-33.218V61.526c0-14.333,4.382-25.404,13.159-33.218
		c8.771-7.808,21.929-11.714,39.477-11.714c17.542,0,30.811,3.906,39.798,11.714c8.984,7.813,13.479,18.885,13.479,33.218v70.61
		h-83.447v57.771c0,17.12,10.161,25.677,30.49,25.677C503.979,215.583,514.144,207.026,514.144,189.906z M453.163,61.526v51.352
		h60.98V61.526c0-17.115-10.164-25.675-30.49-25.675C463.324,35.851,453.163,44.411,453.163,61.526z"/>
	<path d="M618.452,230.025h-22.466V21.408h9.628l8.023,20.861c10.27-17.115,24.497-25.675,42.687-25.675
		c31.451,0,47.178,14.979,47.178,44.932v168.5h-22.467v-168.5c0-8.129-1.764-14.442-5.293-18.936
		c-3.531-4.494-10.005-6.739-19.418-6.739c-9.418,0-18.084,3.639-25.996,10.912c-7.92,7.276-11.876,14.337-11.876,21.181V230.025z"
		/>
	<path d="M786.948,230.025H764.48V21.408h33.7l36.588,137.686l36.91-137.686h33.7v208.618h-22.468V57.354L845.36,197.932h-20.861
		L786.948,57.354V230.025z"/>
	<path d="M992.029,230.025h-22.467V21.408h22.467V230.025z"/>
	<path d="M1078.682,230.025h-22.467V21.408h9.627l8.025,20.861c10.271-17.115,24.497-25.675,42.686-25.675
		c31.453,0,47.18,14.979,47.18,44.932v168.5h-22.466v-168.5c0-8.129-1.766-14.442-5.296-18.936
		c-3.531-4.494-10.004-6.739-19.418-6.739c-9.417,0-18.082,3.639-25.995,10.912c-7.92,7.276-11.876,14.337-11.876,21.181V230.025z"
		/>
	<path d="M1243.968,230.025h-22.465V21.408h48.465c16.688,0,29.365,3.961,38.03,11.875c8.664,7.919,12.999,18.937,12.999,33.059
		v54.561c0,14.339-4.282,25.411-12.839,33.219c-8.561,7.813-21.294,11.716-38.19,11.716h-26V230.025z M1298.529,120.901V66.341
		c0-8.129-2.462-14.443-7.382-18.936c-4.922-4.495-11.985-6.742-21.18-6.742h-26v105.915h26
		C1289.006,146.578,1298.529,138.025,1298.529,120.901z"/>
	<path d="M1394.813,230.025h-22.468V21.408h22.468v93.074h63.226V21.408h22.468v208.618h-22.468v-96.283h-63.226V230.025z"/>
	<path d="M1649,61.526v128.38c0,14.338-4.549,25.41-13.642,33.218c-9.099,7.81-22.684,11.716-40.76,11.716
		c-18.085,0-31.725-3.906-40.921-11.716c-9.203-7.808-13.799-18.88-13.799-33.218V61.526c0-14.333,4.542-25.404,13.639-33.218
		c9.09-7.808,22.676-11.714,40.758-11.714c18.079,0,31.72,3.906,40.923,11.714C1644.395,36.122,1649,47.193,1649,61.526z
		 M1626.532,189.906V61.526c0-17.115-10.701-25.675-32.094-25.675c-21.397,0-32.096,8.56-32.096,25.675v128.38
		c0,17.12,10.698,25.677,32.096,25.677C1615.831,215.583,1626.532,207.026,1626.532,189.906z"/>
</g>
<g>
	<path fill="#FF0000" d="M244.868,155.492l-15.325-2.272c0.688-4.641,1.037-9.397,1.037-14.135
		c0-43.481-29.343-81.499-71.357-92.454l3.91-14.992c48.833,12.733,82.94,56.917,82.94,107.446
		C246.073,144.582,245.668,150.102,244.868,155.492z"/>
	<path fill="#FF0000" d="M135.031,250.126c-34.217,0-66.007-15.423-87.218-42.315l12.165-9.596
		c18.254,23.145,45.61,36.419,75.054,36.419c28.548,0,55.378-12.621,73.611-34.627l11.93,9.885
		C199.386,235.462,168.208,250.126,135.031,250.126z"/>
	<path fill="#FF0000" d="M24.816,152.656c-0.545-4.466-0.822-9.031-0.822-13.571c0-50.529,34.106-94.712,82.941-107.446l3.91,14.992
		C68.83,57.586,39.487,95.604,39.487,139.085c0,3.915,0.238,7.85,0.708,11.692L24.816,152.656z"/>
	<path fill="#FF0000" d="M135.033,69.896c-18.805,0-34.103-15.299-34.103-34.104c0-18.804,15.298-34.103,34.103-34.103
		s34.103,15.299,34.103,34.103C169.136,54.597,153.837,69.896,135.033,69.896z M135.033,17.182c-10.262,0-18.61,8.348-18.61,18.61
		s8.348,18.611,18.61,18.611s18.611-8.349,18.611-18.611S145.295,17.182,135.033,17.182z"/>
	<path fill="#FF0000" d="M229.371,216.911c-19.688,0-35.705-16.018-35.705-35.706s16.017-35.706,35.705-35.706
		c19.688,0,35.707,16.018,35.707,35.706S249.06,216.911,229.371,216.911z M229.371,160.992c-11.145,0-20.212,9.067-20.212,20.213
		c0,11.146,9.067,20.214,20.212,20.214c11.146,0,20.214-9.067,20.214-20.214C249.585,170.06,240.518,160.992,229.371,160.992z"/>
	<path fill="#FF0000" d="M38.987,215.026c-19.799,0-35.907-16.106-35.907-35.906c0-19.799,16.108-35.907,35.907-35.907
		c19.799,0,35.907,16.108,35.907,35.907C74.894,198.92,58.786,215.026,38.987,215.026z M38.987,158.705
		c-11.256,0-20.415,9.158-20.415,20.415c0,11.256,9.158,20.414,20.415,20.414c11.256,0,20.414-9.158,20.414-20.414
		C59.401,167.863,50.243,158.705,38.987,158.705z"/>
	<path fill="#FF0000" d="M135.033,198.995c-32.748,0-59.389-26.642-59.389-59.39c0-32.747,26.642-59.388,59.389-59.388
		c32.747,0,59.389,26.641,59.389,59.388C194.421,172.354,167.779,198.995,135.033,198.995z M135.033,90.546
		c-27.052,0-49.061,22.008-49.061,49.06c0,27.053,22.009,49.062,49.061,49.062s49.06-22.009,49.06-49.062
		C184.093,112.554,162.085,90.546,135.033,90.546z"/>
	<path fill="#FF0000" d="M167.812,145.08c-3.048,0-5.534-2.471-5.534-5.518c0-14.897-12.278-27.017-27.278-27.017V101.51l0,0
		c0,0,0.345,0.001,0.419,0.004c20.849,0.313,37.813,17.261,37.813,38.049C173.231,142.609,170.86,145.08,167.812,145.08z"/>
</g>
</svg>
