<?xml version="1.0" encoding="utf-8"?>
<!-- Generator: Adobe Illustrator 16.0.0, SVG Export Plug-In . SVG Version: 6.00 Build 0)  -->
<!DOCTYPE svg PUBLIC "-//W3C//DTD SVG 1.1//EN" "http://www.w3.org/Graphics/SVG/1.1/DTD/svg11.dtd">
<svg version="1.1" id="Layer_1" xmlns="http://www.w3.org/2000/svg" xmlns:xlink="http://www.w3.org/1999/xlink" x="0px" y="0px"
	 width="821.139px" height="581.51px" viewBox="0 0 821.139 581.51" enable-background="new 0 0 821.139 581.51"
	 xml:space="preserve">
<g opacity="0.25">
	<g>
		<g>
			<rect x="-0.41" y="500.18" fill="#F7931E" width="176.389" height="1.08"/>
		</g>
		<g>
			<g>
				<g>
					<polygon fill="#F7931E" points="521.513,217.661 522.994,217.661 522.994,252.837 564.898,252.827 564.898,351.581 
						504.314,351.581 504.314,451.114 502.813,451.114 502.813,350.088 563.417,350.088 563.417,254.339 521.513,254.349 					"/>
				</g>
			</g>
			<g>
				<g>
					<path fill="#F7931E" d="M503.553,447.118c2.205,0,3.997,1.773,3.997,3.996c0,2.193-1.792,3.988-3.997,3.988
						c-2.184,0-3.997-1.795-3.997-3.988C499.556,448.891,501.37,447.118,503.553,447.118z"/>
				</g>
			</g>
			<g>
				<g>
					<path fill="#F7931E" d="M503.553,347.35c2.205,0,3.997,1.773,3.997,3.996c0,2.213-1.792,3.988-3.997,3.988
						c-2.184,0-3.997-1.775-3.997-3.988C499.556,349.124,501.37,347.35,503.553,347.35z"/>
				</g>
			</g>
			<g>
				<g>
					<path fill="#F7931E" d="M522.253,214.931c1.793,0,3.258,1.462,3.258,3.236c0,1.795-1.465,3.237-3.258,3.237
						c-1.755,0-3.257-1.442-3.257-3.237C518.997,216.393,520.499,214.931,522.253,214.931z"/>
				</g>
			</g>
			<g>
				<g>
					<path fill="#F7931E" d="M564.158,347.35c2.202,0,3.997,1.773,3.997,3.996c0,2.213-1.795,3.988-3.997,3.988
						c-2.185,0-3.998-1.775-3.998-3.988C560.16,349.124,561.973,347.35,564.158,347.35z"/>
				</g>
			</g>
			<g>
				<g>
					<path fill="#F7931E" d="M564.158,249.073c2.202,0,3.997,1.805,3.997,3.998c0,2.213-1.795,3.988-3.997,3.988
						c-2.185,0-3.998-1.766-3.998-3.979C560.16,250.887,561.973,249.073,564.158,249.073z"/>
				</g>
			</g>
			<g>
				<g>
					<path fill="#F7931E" d="M522.78,250.595c1.364,0,2.496,1.121,2.496,2.486c0,1.403-1.132,2.495-2.496,2.495
						c-1.404,0-2.496-1.092-2.496-2.495C520.284,251.716,521.375,250.595,522.78,250.595z"/>
				</g>
			</g>
		</g>
		<g>
			<g>
				<g>
					<g>
						<polygon fill="#F7931E" points="175.619,480.909 175.619,479.827 200.694,479.827 200.694,449.944 271.164,449.944 
							271.164,493.194 342.14,493.194 342.14,494.247 270.092,494.247 270.092,451.016 201.767,451.016 201.767,480.909 						"/>
					</g>
				</g>
			</g>
			<g>
				<g>
					<g>
						<path fill="#F7931E" d="M339.294,493.721c0-1.58,1.267-2.857,2.846-2.857c1.56,0,2.847,1.277,2.847,2.857
							c0,1.578-1.287,2.855-2.847,2.855C340.561,496.577,339.294,495.299,339.294,493.721z"/>
					</g>
				</g>
			</g>
			<g>
				<g>
					<g>
						<path fill="#F7931E" d="M268.141,493.721c0-1.58,1.269-2.857,2.848-2.857c1.56,0,2.828,1.277,2.828,2.857
							c0,1.578-1.268,2.855-2.828,2.855C269.41,496.577,268.141,495.299,268.141,493.721z"/>
					</g>
				</g>
			</g>
			<g>
				<g>
					<g>
						<path fill="#F7931E" d="M173.668,480.383c0-1.277,1.034-2.33,2.321-2.33c1.267,0,2.3,1.053,2.3,2.33
							c0,1.266-1.034,2.301-2.3,2.301C174.702,482.684,173.668,481.649,173.668,480.383z"/>
					</g>
				</g>
			</g>
			<g>
				<g>
					<g>
						<path fill="#F7931E" d="M268.278,449.614c0-1.58,1.267-2.848,2.827-2.848c1.581,0,2.848,1.268,2.848,2.848
							c0,1.559-1.267,2.855-2.848,2.855C269.545,452.469,268.278,451.172,268.278,449.614z"/>
					</g>
				</g>
			</g>
			<g>
				<g>
					<g>
						<path fill="#F7931E" d="M198.042,450.489c0-1.578,1.268-2.846,2.828-2.846c1.58,0,2.846,1.268,2.846,2.846
							c0,1.561-1.267,2.838-2.846,2.838C199.31,453.327,198.042,452.049,198.042,450.489z"/>
					</g>
				</g>
			</g>
			<g>
				<g>
					<g>
						<path fill="#F7931E" d="M199.115,480.032c0-1.014,0.78-1.805,1.754-1.805c1.014,0,1.794,0.791,1.794,1.805
							c0,0.965-0.78,1.756-1.794,1.756C199.895,481.788,199.115,480.997,199.115,480.032z"/>
					</g>
				</g>
			</g>
		</g>
		<g>
			<g>
				<rect x="312.892" y="478.403" fill="#F7931E" width="102.156" height="0.75"/>
			</g>
		</g>
		<g>
			<g>
				<path fill="#F7931E" d="M308.602,478.774c0-2.391,1.93-4.301,4.29-4.301c2.379,0,4.31,1.91,4.31,4.301
					c0,2.369-1.93,4.301-4.31,4.301C310.532,483.075,308.602,481.143,308.602,478.774z"/>
			</g>
		</g>
		<g>
			<g>
				<polygon fill="#F7931E" points="435.853,448.979 504.042,448.979 504.042,449.729 436.595,449.729 436.595,479.153 
					415.047,479.153 415.047,478.403 435.853,478.403 				"/>
			</g>
		</g>
		<g>
			<g>
				<polygon fill="#F7931E" points="278.105,478.012 311.41,478.012 311.41,478.774 278.846,478.774 278.846,489.985 
					273.582,489.985 271.476,493.37 270.832,492.971 273.172,489.245 278.105,489.245 				"/>
			</g>
		</g>
		<g>
			<g>
				<polygon fill="#F7931E" points="175.481,480.383 176.223,480.383 176.223,499.969 229.358,499.969 229.358,485.647 
					230.1,485.647 230.1,500.719 175.481,500.719 				"/>
			</g>
		</g>
		<g>
			<rect x="-0.41" y="441.776" fill="#F7931E" width="178.71" height="1.066"/>
		</g>
		<g>
			<rect x="177.767" y="357.827" fill="#F7931E" width="1.065" height="84.482"/>
		</g>
		<g>
			<rect x="178.3" y="357.293" fill="#F7931E" width="28.397" height="1.064"/>
		</g>
		<g>
			<rect x="206.165" y="357.827" fill="#F7931E" width="1.065" height="56.084"/>
		</g>
		<g>
			<rect x="206.697" y="413.379" fill="#F7931E" width="168.212" height="1.064"/>
		</g>
		<g>
			<rect x="374.375" y="331.559" fill="#F7931E" width="1.065" height="82.352"/>
		</g>
		<g>
			<rect x="374.909" y="331.026" fill="#F7931E" width="180.367" height="1.066"/>
		</g>
		<g>
			<rect x="667.01" y="344.782" fill="#F7931E" width="153.719" height="1.064"/>
		</g>
		<g>
			<g>
				<path fill="#F7931E" d="M174.302,442.303c0-2.213,1.813-3.986,3.998-3.986c2.204,0,3.998,1.773,3.998,3.986
					c0,2.195-1.794,3.998-3.998,3.998C176.116,446.301,174.302,444.499,174.302,442.303z"/>
			</g>
		</g>
		<g>
			<g>
				<path fill="#F7931E" d="M226.102,486.67c0-2.213,1.813-3.986,3.998-3.986c2.204,0,3.998,1.773,3.998,3.986
					c0,2.193-1.794,3.998-3.998,3.998C227.916,490.668,226.102,488.864,226.102,486.67z"/>
			</g>
		</g>
		<g>
			<g>
				<path fill="#F7931E" d="M226.102,500.993c0-2.213,1.813-3.988,3.998-3.988c2.204,0,3.998,1.775,3.998,3.988
					c0,2.193-1.794,3.998-3.998,3.998C227.916,504.991,226.102,503.186,226.102,500.993z"/>
			</g>
		</g>
		<g>
			<g>
				<path fill="#F7931E" d="M171.981,500.715c0-2.213,1.813-3.988,3.998-3.988c2.204,0,3.998,1.775,3.998,3.988
					c0,2.193-1.794,3.996-3.998,3.996C173.794,504.711,171.981,502.909,171.981,500.715z"/>
			</g>
		</g>
		<g>
			<g>
				<path fill="#F7931E" d="M432.173,479.149c0-2.213,1.813-3.988,3.997-3.988c2.205,0,3.998,1.775,3.998,3.988
					c0,2.193-1.793,3.996-3.998,3.996C433.987,483.145,432.173,481.342,432.173,479.149z"/>
			</g>
		</g>
		<g>
			<g>
				<path fill="#F7931E" d="M174.302,357.821c0-2.213,1.813-3.986,3.998-3.986c2.204,0,3.998,1.773,3.998,3.986
					c0,2.193-1.794,3.998-3.998,3.998C176.116,361.819,174.302,360.014,174.302,357.821z"/>
			</g>
		</g>
		<g>
			<g>
				<path fill="#F7931E" d="M202.699,357.821c0-2.213,1.814-3.986,3.998-3.986c2.204,0,3.998,1.773,3.998,3.986
					c0,2.193-1.794,3.998-3.998,3.998C204.513,361.819,202.699,360.014,202.699,357.821z"/>
			</g>
		</g>
		<g>
			<g>
				<path fill="#F7931E" d="M370.911,413.907c0-2.213,1.814-3.988,3.998-3.988c2.203,0,3.998,1.775,3.998,3.988
					c0,2.193-1.795,3.996-3.998,3.996C372.725,417.903,370.911,416.1,370.911,413.907z"/>
			</g>
		</g>
		<g>
			<g>
				<path fill="#F7931E" d="M370.911,331.553c0-2.213,1.814-3.986,3.998-3.986c2.203,0,3.998,1.773,3.998,3.986
					c0,2.195-1.795,3.998-3.998,3.998C372.725,335.551,370.911,333.749,370.911,331.553z"/>
			</g>
		</g>
		<g>
			<g>
				<path fill="#F7931E" d="M551.279,331.553c0-2.213,1.813-3.986,3.997-3.986c2.204,0,3.998,1.773,3.998,3.986
					c0,2.195-1.794,3.998-3.998,3.998C553.092,335.551,551.279,333.749,551.279,331.553z"/>
			</g>
		</g>
		<g>
			<g>
				<path fill="#F7931E" d="M663.012,345.309c0-2.215,1.814-3.988,3.998-3.988c2.204,0,3.997,1.773,3.997,3.988
					c0,2.193-1.793,3.996-3.997,3.996C664.827,349.305,663.012,347.502,663.012,345.309z"/>
			</g>
		</g>
		<g>
			<rect x="795.871" y="176.805" fill="#F7931E" width="24.858" height="0.569"/>
		</g>
		<g>
			<g>
				<path fill="#F7931E" d="M791.873,177.084c0-2.213,1.813-3.987,3.998-3.987c2.203,0,3.997,1.774,3.997,3.987
					c0,2.194-1.794,3.998-3.997,3.998C793.686,181.082,791.873,179.278,791.873,177.084z"/>
			</g>
		</g>
		<g>
			<rect x="751.042" y="201.724" fill="#F7931E" width="69.687" height="0.778"/>
		</g>
		<g>
			<g>
				<path fill="#F7931E" d="M747.044,202.107c0-2.213,1.813-3.987,3.998-3.987c2.203,0,3.997,1.774,3.997,3.987
					c0,2.194-1.794,3.998-3.997,3.998C748.858,206.105,747.044,204.302,747.044,202.107z"/>
			</g>
		</g>
		<g>
			<g>
				<path fill="#F7931E" d="M2.353,548.704c-1.073,0-2.043,0.434-2.763,1.125v5.748c0.719,0.688,1.69,1.111,2.763,1.111
					c2.184,0,3.998-1.773,3.998-3.986C6.35,550.508,4.536,548.704,2.353,548.704z"/>
			</g>
		</g>
		<g>
			<rect x="-0.41" y="527.284" fill="#F7931E" width="47.591" height="0.777"/>
		</g>
		<g>
			<g>
				<path fill="#F7931E" d="M51.178,527.678c0,2.213-1.814,3.988-3.998,3.988c-2.204,0-3.998-1.775-3.998-3.988
					c0-2.193,1.793-3.998,3.998-3.998C49.364,523.68,51.178,525.485,51.178,527.678z"/>
			</g>
		</g>
		<g>
			<g>
				<g>
					<g>
						<g>
							<polygon fill="#F7931E" points="140.782,369.213 239.564,369.211 239.564,429.815 339.068,429.815 339.068,431.307 
								238.043,431.307 238.043,370.704 142.264,370.706 142.264,412.608 105.625,412.608 105.625,411.096 140.782,411.096 							
								"/>
						</g>
					</g>
				</g>
				<g>
					<g>
						<g>
							<path fill="#F7931E" d="M335.07,430.555c0-2.193,1.774-3.988,3.998-3.988c2.184,0,3.978,1.795,3.978,3.988
								s-1.794,3.998-3.978,3.998C336.844,434.553,335.07,432.749,335.07,430.555z"/>
						</g>
					</g>
				</g>
				<g>
					<g>
						<g>
							<path fill="#F7931E" d="M235.293,430.555c0-2.193,1.813-3.988,3.998-3.988c2.204,0,3.998,1.795,3.998,3.988
								s-1.794,3.998-3.998,3.998C237.107,434.553,235.293,432.749,235.293,430.555z"/>
						</g>
					</g>
				</g>
				<g>
					<g>
						<g>
							<path fill="#F7931E" d="M102.856,411.866c0-1.803,1.483-3.244,3.257-3.244c1.793,0,3.236,1.441,3.236,3.244
								c0,1.775-1.443,3.229-3.236,3.229C104.339,415.094,102.856,413.641,102.856,411.866z"/>
						</g>
					</g>
				</g>
				<g>
					<g>
						<g>
							<path fill="#F7931E" d="M235.293,369.954c0-2.213,1.813-3.988,3.998-3.988c2.204,0,3.998,1.775,3.998,3.988
								c0,2.193-1.794,3.996-3.998,3.996C237.107,373.95,235.293,372.147,235.293,369.954z"/>
						</g>
					</g>
				</g>
				<g>
					<g>
						<g>
							<path fill="#F7931E" d="M137.038,369.954c0-2.213,1.794-3.986,3.998-3.986s3.997,1.773,3.997,3.986
								c0,2.195-1.793,3.998-3.997,3.998S137.038,372.149,137.038,369.954z"/>
						</g>
					</g>
				</g>
				<g>
					<g>
						<g>
							<path fill="#F7931E" d="M138.54,411.34c0-1.365,1.111-2.486,2.496-2.486c1.366,0,2.496,1.121,2.496,2.486
								c0,1.402-1.13,2.496-2.496,2.496C139.651,413.836,138.54,412.743,138.54,411.34z"/>
						</g>
					</g>
				</g>
			</g>
			<g>
				<g>
					<g>
						<g>
							<polygon fill="#F7931E" points="135.79,210.334 137.292,210.334 137.292,245.512 179.194,245.511 179.194,344.262 
								118.573,344.262 118.573,443.768 117.071,443.768 117.071,342.752 177.674,342.752 177.674,246.992 135.79,246.993 							
								"/>
						</g>
					</g>
				</g>
				<g>
					<g>
						<g>
							<path fill="#F7931E" d="M117.832,439.77c2.204,0,3.979,1.803,3.979,3.998c0,2.193-1.775,3.996-3.979,3.996
								c-2.203,0-3.977-1.803-3.977-3.996C113.854,441.573,115.629,439.77,117.832,439.77z"/>
						</g>
					</g>
				</g>
				<g>
					<g>
						<g>
							<path fill="#F7931E" d="M117.832,340.032c2.204,0,3.979,1.775,3.979,3.988c0,2.193-1.775,3.998-3.979,3.998
								c-2.203,0-3.977-1.805-3.977-3.998C113.854,341.807,115.629,340.032,117.832,340.032z"/>
						</g>
					</g>
				</g>
				<g>
					<g>
						<g>
							<path fill="#F7931E" d="M136.55,207.605c1.774,0,3.237,1.441,3.237,3.236c0,1.793-1.463,3.236-3.237,3.236
								c-1.792,0-3.256-1.443-3.256-3.236C133.294,209.047,134.758,207.605,136.55,207.605z"/>
						</g>
					</g>
				</g>
				<g>
					<g>
						<g>
							<path fill="#F7931E" d="M178.436,340.032c2.203,0,3.977,1.773,3.977,3.986c0,2.195-1.774,3.998-3.977,3.998
								c-2.205,0-3.979-1.803-3.979-3.998C174.457,341.805,176.23,340.032,178.436,340.032z"/>
						</g>
					</g>
				</g>
				<g>
					<g>
						<g>
							<path fill="#F7931E" d="M178.436,241.767c2.203,0,3.977,1.793,3.977,3.977c0,2.223-1.774,3.998-3.977,3.998
								c-2.205,0-3.979-1.774-3.979-3.998C174.457,243.56,176.23,241.767,178.436,241.767z"/>
						</g>
					</g>
				</g>
				<g>
					<g>
						<g>
							<path fill="#F7931E" d="M137.038,243.268c1.366,0,2.516,1.092,2.516,2.477s-1.15,2.496-2.516,2.496
								c-1.384,0-2.496-1.11-2.496-2.496S135.654,243.268,137.038,243.268z"/>
						</g>
					</g>
				</g>
			</g>
			<g>
				<g>
					<g>
						<g>
							<g>
								<polygon fill="#F7931E" points="339.399,431.481 338.736,431.481 338.736,415.6 319.803,415.6 319.803,371.006 
									347.16,371.006 347.16,326.059 347.863,326.059 347.863,371.668 320.485,371.668 320.485,414.938 339.399,414.936 								
									"/>
							</g>
						</g>
					</g>
				</g>
				<g>
					<g>
						<g>
							<g>
								<path fill="#F7931E" d="M347.511,327.854c-1.014,0-1.794-0.818-1.794-1.795c0-0.994,0.78-1.832,1.794-1.832
									c1.014,0,1.794,0.838,1.794,1.832C349.305,327.036,348.525,327.854,347.511,327.854z"/>
							</g>
						</g>
					</g>
				</g>
				<g>
					<g>
						<g>
							<g>
								<path fill="#F7931E" d="M347.511,372.897c-1.014,0-1.794-0.779-1.794-1.793c0-0.996,0.78-1.795,1.794-1.795
									c1.014,0,1.794,0.799,1.794,1.795C349.305,372.118,348.525,372.897,347.511,372.897z"/>
							</g>
						</g>
					</g>
				</g>
				<g>
					<g>
						<g>
							<g>
								<path fill="#F7931E" d="M339.068,432.729c-0.818,0-1.482-0.662-1.482-1.473c0-0.799,0.664-1.441,1.482-1.441
									c0.8,0,1.463,0.643,1.463,1.441C340.531,432.067,339.868,432.729,339.068,432.729z"/>
							</g>
						</g>
					</g>
				</g>
				<g>
					<g>
						<g>
							<g>
								<path fill="#F7931E" d="M320.134,372.897c-0.995,0-1.793-0.779-1.793-1.793c0-0.996,0.798-1.795,1.793-1.795
									c1.014,0,1.794,0.799,1.794,1.795C321.928,372.118,321.148,372.897,320.134,372.897z"/>
							</g>
						</g>
					</g>
				</g>
				<g>
					<g>
						<g>
							<g>
								<path fill="#F7931E" d="M320.134,417.315c-0.995,0-1.793-0.816-1.793-1.813s0.798-1.793,1.793-1.793
									c1.014,0,1.794,0.797,1.794,1.793S321.148,417.315,320.134,417.315z"/>
							</g>
						</g>
					</g>
				</g>
				<g>
					<g>
						<g>
							<g>
								<path fill="#F7931E" d="M338.815,416.614c-0.605,0-1.092-0.508-1.092-1.111c0-0.645,0.487-1.15,1.092-1.15
									c0.643,0,1.15,0.506,1.15,1.15C339.965,416.106,339.458,416.614,338.815,416.614z"/>
							</g>
						</g>
					</g>
				</g>
			</g>
			<g>
				<g>
					<g>
						<polygon fill="#F7931E" points="177.87,344.018 179,344.018 179,359.774 139.593,359.774 139.593,369.69 138.48,369.69 
							138.48,358.682 177.87,358.682 						"/>
					</g>
				</g>
			</g>
			<g>
				<g>
					<g>
						<polygon fill="#F7931E" points="105.762,342.401 117.832,342.401 117.832,343.141 106.502,343.141 106.502,411.866 
							105.762,411.866 						"/>
					</g>
				</g>
			</g>
			<g>
				<g>
					<g>
						<rect x="25.848" y="325.911" fill="#F7931E" width="75.253" height="1.064"/>
					</g>
				</g>
				<g>
					<g>
						<rect x="25.315" y="252.61" fill="#F7931E" width="1.065" height="73.833"/>
					</g>
				</g>
				<g>
					<g>
						<rect x="25.848" y="252.078" fill="#F7931E" width="75.253" height="1.064"/>
					</g>
				</g>
				<g>
					<g>
						<rect x="101.101" y="288.995" fill="#F7931E" width="77.333" height="1.064"/>
					</g>
				</g>
				<g>
					<g>
						<rect x="101.101" y="213.741" fill="#F7931E" width="78.093" height="1.065"/>
					</g>
				</g>
				<g>
					<g>
						<rect x="178.662" y="173.097" fill="#F7931E" width="1.065" height="72.414"/>
					</g>
				</g>
				<g>
					<g>
						<rect x="179.194" y="172.564" fill="#F7931E" width="78.093" height="1.065"/>
					</g>
				</g>
				<g>
					<g>
						<rect x="256.755" y="173.097" fill="#F7931E" width="1.065" height="78.803"/>
					</g>
				</g>
				<g>
					<g>
						<rect x="221.081" y="213.741" fill="#F7931E" width="70.994" height="1.065"/>
					</g>
				</g>
				<g>
					<g>
						<rect x="291.542" y="214.273" fill="#F7931E" width="1.065" height="71.704"/>
					</g>
				</g>
				<g>
					<g>
						<rect x="257.288" y="251.368" fill="#F7931E" width="72.414" height="1.065"/>
					</g>
				</g>
				<g>
					<g>
						<rect x="329.168" y="251.9" fill="#F7931E" width="1.065" height="74.544"/>
					</g>
				</g>
				<g>
					<g>
						<rect x="257.288" y="325.911" fill="#F7931E" width="72.414" height="1.064"/>
					</g>
				</g>
				<g>
					<g>
						<rect x="100.569" y="214.273" fill="#F7931E" width="1.065" height="75.254"/>
					</g>
				</g>
			</g>
			<g>
				<g>
					<g>
						<path fill="#F7931E" d="M97.104,327.045c0-2.213,1.814-3.986,3.998-3.986c2.204,0,3.998,1.773,3.998,3.986
							c0,2.195-1.794,3.998-3.998,3.998C98.917,331.043,97.104,329.241,97.104,327.045z"/>
					</g>
				</g>
			</g>
			<g>
				<g>
					<g>
						<path fill="#F7931E" d="M21.851,327.045c0-2.213,1.813-3.986,3.998-3.986c2.204,0,3.998,1.773,3.998,3.986
							c0,2.195-1.794,3.998-3.998,3.998C23.664,331.043,21.851,329.241,21.851,327.045z"/>
					</g>
				</g>
			</g>
			<g>
				<g>
					<g>
						<path fill="#F7931E" d="M21.851,251.896c0-2.213,1.813-3.987,3.998-3.987c2.204,0,3.998,1.774,3.998,3.987
							c0,2.194-1.794,3.998-3.998,3.998C23.664,255.894,21.851,254.09,21.851,251.896z"/>
					</g>
				</g>
			</g>
			<g>
				<g>
					<g>
						<path fill="#F7931E" d="M97.104,289.167c0-2.213,1.814-3.988,3.998-3.988c2.204,0,3.998,1.774,3.998,3.988
							c0,2.195-1.794,3.998-3.998,3.998C98.917,293.165,97.104,291.362,97.104,289.167z"/>
					</g>
				</g>
			</g>
			<g>
				<g>
					<g>
						<path fill="#F7931E" d="M174.437,289.167c0-2.213,1.813-3.988,3.998-3.988c2.204,0,3.998,1.774,3.998,3.988
							c0,2.195-1.794,3.998-3.998,3.998C176.25,293.165,174.437,291.362,174.437,289.167z"/>
					</g>
				</g>
			</g>
			<g>
				<g>
					<g>
						<path fill="#F7931E" d="M97.104,252.605c0-2.213,1.814-3.987,3.998-3.987c2.204,0,3.998,1.774,3.998,3.987
							c0,2.195-1.794,3.998-3.998,3.998C98.917,256.603,97.104,254.8,97.104,252.605z"/>
					</g>
				</g>
			</g>
			<g>
				<g>
					<g>
						<path fill="#F7931E" d="M97.104,214.073c0-2.213,1.814-3.987,3.998-3.987c2.204,0,3.998,1.774,3.998,3.987
							c0,2.194-1.794,3.998-3.998,3.998C98.917,218.07,97.104,216.267,97.104,214.073z"/>
					</g>
				</g>
			</g>
			<g>
				<g>
					<g>
						<path fill="#F7931E" d="M217.083,214.073c0-2.213,1.813-3.987,3.998-3.987c2.204,0,3.998,1.774,3.998,3.987
							c0,2.194-1.794,3.998-3.998,3.998C218.896,218.07,217.083,216.267,217.083,214.073z"/>
					</g>
				</g>
			</g>
			<g>
				<g>
					<g>
						<path fill="#F7931E" d="M175.197,173.092c0-2.213,1.814-3.987,3.998-3.987c2.204,0,3.998,1.774,3.998,3.987
							c0,2.194-1.794,3.998-3.998,3.998C177.011,177.089,175.197,175.286,175.197,173.092z"/>
					</g>
				</g>
			</g>
			<g>
				<g>
					<g>
						<path fill="#F7931E" d="M252.58,173.092c0-2.213,1.813-3.987,3.998-3.987c2.204,0,3.998,1.774,3.998,3.987
							c0,2.194-1.794,3.998-3.998,3.998C254.394,177.089,252.58,175.286,252.58,173.092z"/>
					</g>
				</g>
			</g>
			<g>
				<g>
					<g>
						<path fill="#F7931E" d="M253.29,214.073c0-2.213,1.814-3.987,3.998-3.987c2.204,0,3.997,1.774,3.997,3.987
							c0,2.194-1.793,3.998-3.997,3.998C255.104,218.07,253.29,216.267,253.29,214.073z"/>
					</g>
				</g>
			</g>
			<g>
				<g>
					<g>
						<path fill="#F7931E" d="M253.29,251.363c0-2.213,1.814-3.987,3.998-3.987c2.204,0,3.997,1.774,3.997,3.987
							c0,2.195-1.793,3.998-3.997,3.998C255.104,255.36,253.29,253.558,253.29,251.363z"/>
					</g>
				</g>
			</g>
			<g>
				<g>
					<g>
						<path fill="#F7931E" d="M288.077,252.605c0-2.213,1.813-3.987,3.998-3.987c2.204,0,3.998,1.774,3.998,3.987
							c0,2.195-1.794,3.998-3.998,3.998C289.891,256.603,288.077,254.8,288.077,252.605z"/>
					</g>
				</g>
			</g>
			<g>
				<g>
					<g>
						<path fill="#F7931E" d="M288.694,285.175c0-2.213,1.813-3.988,3.998-3.988c2.204,0,3.998,1.775,3.998,3.988
							c0,2.193-1.794,3.998-3.998,3.998C290.507,289.172,288.694,287.368,288.694,285.175z"/>
					</g>
				</g>
			</g>
			<g>
				<g>
					<g>
						<path fill="#F7931E" d="M288.077,214.269c0-2.213,1.813-3.987,3.998-3.987c2.204,0,3.998,1.774,3.998,3.987
							c0,2.194-1.794,3.998-3.998,3.998C289.891,218.266,288.077,216.463,288.077,214.269z"/>
					</g>
				</g>
			</g>
			<g>
				<g>
					<g>
						<path fill="#F7931E" d="M325.704,252.605c0-2.213,1.813-3.987,3.998-3.987c2.204,0,3.998,1.774,3.998,3.987
							c0,2.195-1.794,3.998-3.998,3.998C327.517,256.603,325.704,254.8,325.704,252.605z"/>
					</g>
				</g>
			</g>
			<g>
				<g>
					<g>
						<path fill="#F7931E" d="M325.704,326.438c0-2.213,1.813-3.986,3.998-3.986c2.204,0,3.998,1.773,3.998,3.986
							c0,2.195-1.794,3.998-3.998,3.998C327.517,330.436,325.704,328.633,325.704,326.438z"/>
					</g>
				</g>
			</g>
			<g>
				<g>
					<g>
						<path fill="#F7931E" d="M253.29,326.438c0-2.213,1.814-3.986,3.998-3.986c2.204,0,3.997,1.773,3.997,3.986
							c0,2.195-1.793,3.998-3.997,3.998C255.104,330.436,253.29,328.633,253.29,326.438z"/>
					</g>
				</g>
			</g>
		</g>
		<g>
			<rect x="521.513" y="217.128" fill="#F7931E" width="299.216" height="1.065"/>
		</g>
	</g>
	<g>
		<g>
			<g>
				<g>
					<polygon fill="#F7931E" points="301.703,25.121 301.703,0.517 300.201,0.517 300.201,23.629 239.618,23.629 239.618,122.383 
						281.521,122.373 281.521,157.549 283.002,157.549 283.002,120.861 241.099,120.871 241.099,25.121 					"/>
				</g>
			</g>
			<g>
				<g>
					<path fill="#F7931E" d="M300.962,27.86c-2.205,0-3.998-1.774-3.998-3.997c0-2.213,1.793-3.988,3.998-3.988
						c2.184,0,3.998,1.775,3.998,3.988C304.959,26.086,303.146,27.86,300.962,27.86z"/>
				</g>
			</g>
			<g>
				<g>
					<path fill="#F7931E" d="M282.262,160.278c-1.793,0-3.257-1.462-3.257-3.236c0-1.795,1.464-3.237,3.257-3.237
						c1.755,0,3.257,1.442,3.257,3.237C285.519,158.816,284.017,160.278,282.262,160.278z"/>
				</g>
			</g>
			<g>
				<g>
					<path fill="#F7931E" d="M240.358,27.86c-2.203,0-3.998-1.774-3.998-3.997c0-2.213,1.795-3.988,3.998-3.988
						c2.184,0,3.998,1.775,3.998,3.988C244.355,26.086,242.542,27.86,240.358,27.86z"/>
				</g>
			</g>
			<g>
				<g>
					<path fill="#F7931E" d="M240.358,126.136c-2.203,0-3.998-1.805-3.998-3.998c0-2.213,1.795-3.988,3.998-3.988
						c2.184,0,3.998,1.766,3.998,3.979C244.355,124.322,242.542,126.136,240.358,126.136z"/>
				</g>
			</g>
			<g>
				<g>
					<path fill="#F7931E" d="M281.735,124.615c-1.364,0-2.496-1.121-2.496-2.486c0-1.404,1.131-2.496,2.496-2.496
						c1.404,0,2.496,1.092,2.496,2.496C284.231,123.494,283.139,124.615,281.735,124.615z"/>
				</g>
			</g>
		</g>
		<g>
			<rect x="625.684" y="0.517" fill="#F7931E" width="1.064" height="16.866"/>
		</g>
		<g>
			<rect x="597.818" y="16.851" fill="#F7931E" width="28.398" height="1.065"/>
		</g>
		<g>
			<rect x="597.286" y="0.517" fill="#F7931E" width="1.065" height="16.866"/>
		</g>
		<g>
			<rect x="429.075" y="0.517" fill="#F7931E" width="1.064" height="43.133"/>
		</g>
		<g>
			<rect x="249.239" y="43.118" fill="#F7931E" width="180.368" height="1.065"/>
		</g>
		<g>
			<g>
				<path fill="#F7931E" d="M630.213,17.389c0,2.213-1.813,3.987-3.997,3.987c-2.205,0-3.998-1.774-3.998-3.987
					c0-2.194,1.793-3.998,3.998-3.998C628.4,13.391,630.213,15.194,630.213,17.389z"/>
			</g>
		</g>
		<g>
			<g>
				<path fill="#F7931E" d="M601.816,17.389c0,2.213-1.813,3.987-3.998,3.987c-2.203,0-3.997-1.774-3.997-3.987
					c0-2.194,1.794-3.998,3.997-3.998C600.002,13.391,601.816,15.194,601.816,17.389z"/>
			</g>
		</g>
		<g>
			<g>
				<path fill="#F7931E" d="M433.604,43.656c0,2.213-1.813,3.987-3.997,3.987c-2.204,0-3.998-1.774-3.998-3.987
					c0-2.194,1.794-3.998,3.998-3.998C431.791,39.658,433.604,41.461,433.604,43.656z"/>
			</g>
		</g>
		<g>
			<g>
				<path fill="#F7931E" d="M253.237,43.656c0,2.213-1.813,3.987-3.998,3.987c-2.204,0-3.998-1.774-3.998-3.987
					c0-2.194,1.794-3.998,3.998-3.998C251.423,39.658,253.237,41.461,253.237,43.656z"/>
			</g>
		</g>
		<g>
			<rect x="-0.41" y="197.836" fill="#F7931E" width="9.054" height="0.569"/>
		</g>
		<g>
			<g>
				<path fill="#F7931E" d="M12.643,198.125c0,2.213-1.813,3.987-3.998,3.987c-2.204,0-3.998-1.774-3.998-3.987
					c0-2.194,1.794-3.998,3.998-3.998C10.829,194.128,12.643,195.931,12.643,198.125z"/>
			</g>
		</g>
		<g>
			<rect x="-0.41" y="172.708" fill="#F7931E" width="53.883" height="0.778"/>
		</g>
		<g>
			<g>
				<path fill="#F7931E" d="M57.471,173.102c0,2.213-1.813,3.987-3.998,3.987c-2.204,0-3.998-1.774-3.998-3.987
					c0-2.194,1.794-3.998,3.998-3.998C55.657,169.104,57.471,170.908,57.471,173.102z"/>
			</g>
		</g>
		<g>
			<g>
				<g>
					<g>
						<g>
							<polygon fill="#F7931E" points="662.251,0.517 662.251,4.505 566.472,4.506 566.472,0.517 564.951,0.517 564.951,5.997 
								663.733,5.996 663.733,0.517 							"/>
						</g>
					</g>
				</g>
				<g>
					<g>
						<g>
							<path fill="#F7931E" d="M569.222,5.257c0,2.213-1.814,3.987-3.998,3.987c-2.203,0-3.997-1.774-3.997-3.987
								c0-2.194,1.794-3.998,3.997-3.998C567.408,1.259,569.222,3.063,569.222,5.257z"/>
						</g>
					</g>
				</g>
				<g>
					<g>
						<g>
							<path fill="#F7931E" d="M667.477,5.255c0,2.213-1.794,3.987-3.997,3.987c-2.204,0-3.997-1.774-3.997-3.987
								c0-2.194,1.793-3.998,3.997-3.998C665.683,1.258,667.477,3.062,667.477,5.255z"/>
						</g>
					</g>
				</g>
			</g>
			<g>
				<g>
					<g>
						<g>
							<polygon fill="#F7931E" points="687.444,32.457 687.444,0.517 685.943,0.517 685.943,30.946 625.321,30.946 625.321,129.699 
								667.223,129.698 667.223,164.875 668.725,164.875 668.725,128.217 626.841,128.218 626.841,32.458 							"/>
						</g>
					</g>
				</g>
				<g>
					<g>
						<g>
							<path fill="#F7931E" d="M686.684,35.177c-2.204,0-3.979-1.774-3.979-3.987c0-2.194,1.775-3.998,3.979-3.998
								c2.202,0,3.977,1.803,3.977,3.998C690.661,33.403,688.886,35.177,686.684,35.177z"/>
						</g>
					</g>
				</g>
				<g>
					<g>
						<g>
							<path fill="#F7931E" d="M667.964,167.604c-1.773,0-3.236-1.441-3.236-3.236c0-1.793,1.463-3.236,3.236-3.236
								c1.793,0,3.257,1.443,3.257,3.236C671.221,166.163,669.757,167.604,667.964,167.604z"/>
						</g>
					</g>
				</g>
				<g>
					<g>
						<g>
							<path fill="#F7931E" d="M626.08,35.178c-2.202,0-3.977-1.774-3.977-3.987c0-2.194,1.774-3.998,3.977-3.998
								c2.205,0,3.979,1.803,3.979,3.998C630.059,33.404,628.285,35.178,626.08,35.178z"/>
						</g>
					</g>
				</g>
				<g>
					<g>
						<g>
							<path fill="#F7931E" d="M626.08,133.443c-2.202,0-3.977-1.793-3.977-3.977c0-2.223,1.774-3.998,3.977-3.998
								c2.205,0,3.979,1.774,3.979,3.998C630.059,131.65,628.285,133.443,626.08,133.443z"/>
						</g>
					</g>
				</g>
				<g>
					<g>
						<g>
							<path fill="#F7931E" d="M667.477,131.942c-1.365,0-2.516-1.092-2.516-2.477s1.15-2.496,2.516-2.496
								c1.384,0,2.496,1.11,2.496,2.496S668.861,131.942,667.477,131.942z"/>
						</g>
					</g>
				</g>
			</g>
			<g>
				<g>
					<g>
						<g>
							<g>
								<polygon fill="#F7931E" points="484.031,0.517 484.031,3.542 456.653,3.542 456.653,49.15 457.356,49.15 457.356,4.203 
									484.712,4.203 484.712,0.517 								"/>
							</g>
						</g>
					</g>
				</g>
				<g>
					<g>
						<g>
							<g>
								<path fill="#F7931E" d="M457.004,47.355c1.014,0,1.794,0.819,1.794,1.795c0,0.994-0.78,1.832-1.794,1.832
									c-1.015,0-1.794-0.838-1.794-1.832C455.21,48.174,455.99,47.355,457.004,47.355z"/>
							</g>
						</g>
					</g>
				</g>
				<g>
					<g>
						<g>
							<g>
								<path fill="#F7931E" d="M457.004,2.313c1.014,0,1.794,0.78,1.794,1.793c0,0.996-0.78,1.795-1.794,1.795
									c-1.015,0-1.794-0.799-1.794-1.795C455.21,3.092,455.99,2.313,457.004,2.313z"/>
							</g>
						</g>
					</g>
				</g>
				<g>
					<g>
						<g>
							<g>
								<path fill="#F7931E" d="M484.38,2.313c0.996,0,1.794,0.78,1.794,1.793c0,0.996-0.798,1.795-1.794,1.795
									c-1.014,0-1.794-0.799-1.794-1.795C482.586,3.092,483.367,2.313,484.38,2.313z"/>
							</g>
						</g>
					</g>
				</g>
			</g>
			<g>
				<g>
					<g>
						<polygon fill="#F7931E" points="626.646,31.191 625.515,31.191 625.515,15.436 664.922,15.435 664.922,5.52 666.035,5.52 
							666.035,16.526 626.646,16.528 						"/>
					</g>
				</g>
			</g>
			<g>
				<g>
					<g>
						<polygon fill="#F7931E" points="698.013,0.517 698.013,32.067 686.684,32.067 686.684,32.808 698.753,32.808 698.753,0.517 
													"/>
					</g>
				</g>
			</g>
			<g>
				<g>
					<g>
						<rect x="703.414" y="48.233" fill="#F7931E" width="75.254" height="1.065"/>
					</g>
				</g>
				<g>
					<g>
						<rect x="778.135" y="48.766" fill="#F7931E" width="1.064" height="73.833"/>
					</g>
				</g>
				<g>
					<g>
						<rect x="703.414" y="122.067" fill="#F7931E" width="75.254" height="1.065"/>
					</g>
				</g>
				<g>
					<g>
						<rect x="626.081" y="85.149" fill="#F7931E" width="77.333" height="1.065"/>
					</g>
				</g>
				<g>
					<g>
						<rect x="625.321" y="160.403" fill="#F7931E" width="78.093" height="1.065"/>
					</g>
				</g>
				<g>
					<g>
						<rect x="624.789" y="129.699" fill="#F7931E" width="1.064" height="72.414"/>
					</g>
				</g>
				<g>
					<g>
						<rect x="547.228" y="201.58" fill="#F7931E" width="78.093" height="1.065"/>
					</g>
				</g>
				<g>
					<g>
						<rect x="546.696" y="129.699" fill="#F7931E" width="1.064" height="72.414"/>
					</g>
				</g>
				<g>
					<g>
						<rect x="512.441" y="160.403" fill="#F7931E" width="70.994" height="1.065"/>
					</g>
				</g>
				<g>
					<g>
						<rect x="511.908" y="89.232" fill="#F7931E" width="1.065" height="71.704"/>
					</g>
				</g>
				<g>
					<g>
						<rect x="474.814" y="122.777" fill="#F7931E" width="66.024" height="1.065"/>
					</g>
				</g>
				<g>
					<g>
						<rect x="474.282" y="48.766" fill="#F7931E" width="1.065" height="74.543"/>
					</g>
				</g>
				<g>
					<g>
						<rect x="474.814" y="48.233" fill="#F7931E" width="72.414" height="1.065"/>
					</g>
				</g>
				<g>
					<g>
						<rect x="702.881" y="85.682" fill="#F7931E" width="1.064" height="75.254"/>
					</g>
				</g>
			</g>
			<g>
				<g>
					<g>
						<path fill="#F7931E" d="M707.412,48.164c0,2.213-1.814,3.987-3.998,3.987c-2.203,0-3.998-1.774-3.998-3.987
							c0-2.194,1.795-3.998,3.998-3.998C705.597,44.167,707.412,45.97,707.412,48.164z"/>
					</g>
				</g>
			</g>
			<g>
				<g>
					<g>
						<path fill="#F7931E" d="M782.665,48.164c0,2.213-1.813,3.987-3.997,3.987c-2.204,0-3.998-1.774-3.998-3.987
							c0-2.194,1.794-3.998,3.998-3.998C780.851,44.167,782.665,45.97,782.665,48.164z"/>
					</g>
				</g>
			</g>
			<g>
				<g>
					<g>
						<path fill="#F7931E" d="M782.665,123.314c0,2.213-1.813,3.987-3.997,3.987c-2.204,0-3.998-1.774-3.998-3.987
							c0-2.194,1.794-3.998,3.998-3.998C780.851,119.316,782.665,121.12,782.665,123.314z"/>
					</g>
				</g>
			</g>
			<g>
				<g>
					<g>
						<path fill="#F7931E" d="M707.412,86.043c0,2.213-1.814,3.987-3.998,3.987c-2.203,0-3.998-1.774-3.998-3.987
							c0-2.194,1.795-3.998,3.998-3.998C705.597,82.045,707.412,83.849,707.412,86.043z"/>
					</g>
				</g>
			</g>
			<g>
				<g>
					<g>
						<path fill="#F7931E" d="M630.079,86.043c0,2.213-1.813,3.987-3.998,3.987c-2.203,0-3.997-1.774-3.997-3.987
							c0-2.194,1.794-3.998,3.997-3.998C628.265,82.045,630.079,83.849,630.079,86.043z"/>
					</g>
				</g>
			</g>
			<g>
				<g>
					<g>
						<path fill="#F7931E" d="M707.412,122.604c0,2.213-1.814,3.987-3.998,3.987c-2.203,0-3.998-1.774-3.998-3.987
							c0-2.194,1.795-3.998,3.998-3.998C705.597,118.607,707.412,120.41,707.412,122.604z"/>
					</g>
				</g>
			</g>
			<g>
				<g>
					<g>
						<path fill="#F7931E" d="M707.412,161.137c0,2.213-1.814,3.987-3.998,3.987c-2.203,0-3.998-1.774-3.998-3.987
							c0-2.194,1.795-3.998,3.998-3.998C705.597,157.139,707.412,158.942,707.412,161.137z"/>
					</g>
				</g>
			</g>
			<g>
				<g>
					<g>
						<path fill="#F7931E" d="M587.432,161.137c0,2.213-1.813,3.987-3.997,3.987c-2.204,0-3.998-1.774-3.998-3.987
							c0-2.194,1.794-3.998,3.998-3.998C585.619,157.139,587.432,158.942,587.432,161.137z"/>
					</g>
				</g>
			</g>
			<g>
				<g>
					<g>
						<path fill="#F7931E" d="M629.318,202.118c0,2.213-1.813,3.987-3.997,3.987c-2.204,0-3.998-1.774-3.998-3.987
							c0-2.194,1.794-3.998,3.998-3.998C627.504,198.12,629.318,199.923,629.318,202.118z"/>
					</g>
				</g>
			</g>
			<g>
				<g>
					<g>
						<path fill="#F7931E" d="M551.935,202.118c0,2.213-1.814,3.987-3.998,3.987c-2.202,0-3.997-1.774-3.997-3.987
							c0-2.194,1.795-3.998,3.997-3.998C550.121,198.12,551.935,199.923,551.935,202.118z"/>
					</g>
				</g>
			</g>
			<g>
				<g>
					<g>
						<path fill="#F7931E" d="M551.225,161.137c0,2.213-1.813,3.987-3.997,3.987c-2.204,0-3.998-1.774-3.998-3.987
							c0-2.194,1.794-3.998,3.998-3.998C549.412,157.139,551.225,158.942,551.225,161.137z"/>
					</g>
				</g>
			</g>
			<g>
				<g>
					<g>
						<path fill="#F7931E" d="M551.225,129.704c0,2.213-1.813,3.987-3.997,3.987c-2.204,0-3.998-1.774-3.998-3.987
							c0-2.194,1.794-3.998,3.998-3.998C549.412,125.707,551.225,127.51,551.225,129.704z"/>
					</g>
				</g>
			</g>
			<g>
				<g>
					<g>
						<path fill="#F7931E" d="M516.438,122.604c0,2.213-1.813,3.987-3.997,3.987c-2.204,0-3.998-1.774-3.998-3.987
							c0-2.194,1.794-3.998,3.998-3.998C514.625,118.607,516.438,120.41,516.438,122.604z"/>
					</g>
				</g>
			</g>
			<g>
				<g>
					<g>
						<path fill="#F7931E" d="M515.822,90.035c0,2.213-1.814,3.987-3.998,3.987c-2.203,0-3.997-1.774-3.997-3.987
							c0-2.194,1.794-3.998,3.997-3.998C514.007,86.038,515.822,87.841,515.822,90.035z"/>
					</g>
				</g>
			</g>
			<g>
				<g>
					<g>
						<path fill="#F7931E" d="M516.438,160.941c0,2.213-1.813,3.987-3.997,3.987c-2.204,0-3.998-1.774-3.998-3.987
							c0-2.194,1.794-3.998,3.998-3.998C514.625,156.943,516.438,158.747,516.438,160.941z"/>
					</g>
				</g>
			</g>
			<g>
				<g>
					<g>
						<path fill="#F7931E" d="M478.812,122.604c0,2.213-1.813,3.987-3.998,3.987c-2.203,0-3.997-1.774-3.997-3.987
							c0-2.194,1.794-3.998,3.997-3.998C476.999,118.607,478.812,120.41,478.812,122.604z"/>
					</g>
				</g>
			</g>
			<g>
				<g>
					<g>
						<path fill="#F7931E" d="M478.812,48.771c0,2.213-1.813,3.987-3.998,3.987c-2.203,0-3.997-1.774-3.997-3.987
							c0-2.194,1.794-3.998,3.997-3.998C476.999,44.773,478.812,46.577,478.812,48.771z"/>
					</g>
				</g>
			</g>
			<g>
				<g>
					<g>
						<path fill="#F7931E" d="M551.225,48.771c0,2.213-1.813,3.987-3.997,3.987c-2.204,0-3.998-1.774-3.998-3.987
							c0-2.194,1.794-3.998,3.998-3.998C549.412,44.773,551.225,46.577,551.225,48.771z"/>
					</g>
				</g>
			</g>
		</g>
		<g>
			<rect x="-0.41" y="157.016" fill="#F7931E" width="283.412" height="1.065"/>
		</g>
	</g>
	<g>
		<g>
			<g>
				<g>
					<g>
						<g>
							<polygon fill="#F7931E" points="63.973,0.517 62.452,0.517 62.452,74.692 104.354,74.691 104.354,109.868 105.856,109.868 
								105.856,73.21 63.973,73.211 							"/>
						</g>
					</g>
				</g>
				<g>
					<g>
						<g>
							<path fill="#F7931E" d="M105.096,112.597c-1.774,0-3.237-1.441-3.237-3.236c0-1.793,1.463-3.236,3.237-3.236
								c1.793,0,3.256,1.443,3.256,3.236C108.352,111.156,106.889,112.597,105.096,112.597z"/>
						</g>
					</g>
				</g>
				<g>
					<g>
						<g>
							<path fill="#F7931E" d="M63.211,78.436c-2.203,0-3.977-1.792-3.977-3.977c0-2.224,1.774-3.998,3.977-3.998
								c2.205,0,3.979,1.774,3.979,3.998C67.19,76.643,65.416,78.436,63.211,78.436z"/>
						</g>
					</g>
				</g>
				<g>
					<g>
						<g>
							<path fill="#F7931E" d="M104.608,76.935c-1.365,0-2.516-1.092-2.516-2.477s1.15-2.496,2.516-2.496
								c1.384,0,2.496,1.111,2.496,2.496S105.993,76.935,104.608,76.935z"/>
						</g>
					</g>
				</g>
			</g>
			<g>
				<g>
					<g>
						<rect x="215.266" y="0.517" fill="#F7931E" width="1.065" height="67.075"/>
					</g>
				</g>
				<g>
					<g>
						<rect x="140.545" y="67.06" fill="#F7931E" width="75.254" height="1.065"/>
					</g>
				</g>
				<g>
					<g>
						<rect x="63.212" y="30.143" fill="#F7931E" width="77.333" height="1.065"/>
					</g>
				</g>
				<g>
					<g>
						<rect x="62.452" y="105.396" fill="#F7931E" width="78.093" height="1.065"/>
					</g>
				</g>
				<g>
					<g>
						<rect x="61.919" y="74.692" fill="#F7931E" width="1.065" height="72.414"/>
					</g>
				</g>
				<g>
					<g>
						<rect x="-0.41" y="146.573" fill="#F7931E" width="62.862" height="1.065"/>
					</g>
				</g>
				<g>
					<g>
						<rect x="-0.41" y="105.396" fill="#F7931E" width="20.976" height="1.065"/>
					</g>
				</g>
				<g>
					<g>
						<rect x="140.012" y="30.675" fill="#F7931E" width="1.065" height="75.253"/>
					</g>
				</g>
			</g>
			<g>
				<g>
					<g>
						<path fill="#F7931E" d="M219.796,68.307c0,2.213-1.814,3.987-3.998,3.987c-2.204,0-3.998-1.774-3.998-3.987
							c0-2.194,1.794-3.998,3.998-3.998C217.982,64.31,219.796,66.113,219.796,68.307z"/>
					</g>
				</g>
			</g>
			<g>
				<g>
					<g>
						<path fill="#F7931E" d="M144.542,31.036c0,2.213-1.813,3.987-3.998,3.987c-2.203,0-3.998-1.774-3.998-3.987
							c0-2.194,1.795-3.998,3.998-3.998C142.729,27.039,144.542,28.842,144.542,31.036z"/>
					</g>
				</g>
			</g>
			<g>
				<g>
					<g>
						<path fill="#F7931E" d="M67.21,31.036c0,2.213-1.814,3.987-3.998,3.987c-2.204,0-3.998-1.774-3.998-3.987
							c0-2.194,1.794-3.998,3.998-3.998C65.396,27.039,67.21,28.842,67.21,31.036z"/>
					</g>
				</g>
			</g>
			<g>
				<g>
					<g>
						<path fill="#F7931E" d="M144.542,67.597c0,2.213-1.813,3.987-3.998,3.987c-2.203,0-3.998-1.774-3.998-3.987
							c0-2.194,1.795-3.998,3.998-3.998C142.729,63.6,144.542,65.403,144.542,67.597z"/>
					</g>
				</g>
			</g>
			<g>
				<g>
					<g>
						<path fill="#F7931E" d="M144.542,106.129c0,2.213-1.813,3.987-3.998,3.987c-2.203,0-3.998-1.774-3.998-3.987
							c0-2.194,1.795-3.998,3.998-3.998C142.729,102.132,144.542,103.935,144.542,106.129z"/>
					</g>
				</g>
			</g>
			<g>
				<g>
					<g>
						<path fill="#F7931E" d="M24.563,106.129c0,2.213-1.813,3.987-3.998,3.987c-2.204,0-3.998-1.774-3.998-3.987
							c0-2.194,1.794-3.998,3.998-3.998C22.75,102.132,24.563,103.935,24.563,106.129z"/>
					</g>
				</g>
			</g>
			<g>
				<g>
					<g>
						<path fill="#F7931E" d="M66.45,147.111c0,2.213-1.814,3.987-3.998,3.987c-2.204,0-3.998-1.774-3.998-3.987
							c0-2.194,1.794-3.998,3.998-3.998C64.636,143.113,66.45,144.917,66.45,147.111z"/>
					</g>
				</g>
			</g>
		</g>
	</g>
	<g>
		<g>
			<rect x="148.153" y="543.774" fill="#F7931E" width="225.134" height="1.08"/>
		</g>
		<g>
			<g>
				<g>
					<g>
						<polygon fill="#F7931E" points="123.438,582.028 123.438,565.208 148.513,565.206 148.513,564.125 122.365,564.125 
							122.365,582.028 						"/>
						<polygon fill="#F7931E" points="-0.41,550.786 -0.41,551.84 52.967,551.84 52.967,582.028 54.04,582.028 54.04,550.786 						
							"/>
					</g>
				</g>
			</g>
			<g>
				<g>
					<g>
						<path fill="#F7931E" d="M55.991,551.313c0,1.58-1.269,2.857-2.847,2.857c-1.56,0-2.829-1.277-2.829-2.857
							s1.269-2.855,2.829-2.855C54.722,548.458,55.991,549.733,55.991,551.313z"/>
					</g>
				</g>
			</g>
			<g>
				<g>
					<g>
						<path fill="#F7931E" d="M150.464,564.651c0,1.277-1.034,2.33-2.321,2.33c-1.267,0-2.3-1.053-2.3-2.33
							c0-1.268,1.034-2.301,2.3-2.301C149.43,562.35,150.464,563.383,150.464,564.651z"/>
					</g>
				</g>
			</g>
			<g>
				<g>
					<g>
						<path fill="#F7931E" d="M125.017,565.002c0,1.014-0.78,1.805-1.756,1.805c-1.013,0-1.792-0.791-1.792-1.805
							c0-0.965,0.78-1.756,1.792-1.756C124.236,563.247,125.017,564.038,125.017,565.002z"/>
					</g>
				</g>
			</g>
		</g>
		<g>
			<g>
				<rect x="-0.41" y="565.879" fill="#F7931E" width="11.65" height="0.752"/>
			</g>
		</g>
		<g>
			<g>
				<path fill="#F7931E" d="M15.529,566.26c0,2.389-1.93,4.299-4.289,4.299c-2.379,0-4.31-1.91-4.31-4.299
					c0-2.369,1.93-4.301,4.31-4.301C13.599,561.959,15.529,563.891,15.529,566.26z"/>
			</g>
		</g>
		<g>
			<g>
				<polygon fill="#F7931E" points="46.026,567.02 12.721,567.02 12.721,566.26 45.286,566.26 45.286,555.047 50.55,555.047 
					52.655,551.665 53.299,552.063 50.959,555.788 46.026,555.788 				"/>
			</g>
		</g>
		<g>
			<g>
				<polygon fill="#F7931E" points="148.65,564.651 147.908,564.651 147.908,545.065 94.772,545.065 94.772,559.387 94.032,559.387 
					94.032,544.313 148.65,544.313 				"/>
			</g>
		</g>
		<g>
			<g>
				<path fill="#F7931E" d="M98.03,558.364c0,2.213-1.813,3.986-3.998,3.986c-2.205,0-3.998-1.773-3.998-3.986
					c0-2.195,1.793-3.998,3.998-3.998C96.216,554.366,98.03,556.168,98.03,558.364z"/>
			</g>
		</g>
		<g>
			<g>
				<path fill="#F7931E" d="M98.03,544.042c0,2.213-1.813,3.986-3.998,3.986c-2.205,0-3.998-1.773-3.998-3.986
					c0-2.195,1.793-3.998,3.998-3.998C96.216,540.043,98.03,541.846,98.03,544.042z"/>
			</g>
		</g>
		<g>
			<g>
				<path fill="#F7931E" d="M152.151,544.319c0,2.213-1.814,3.986-3.998,3.986c-2.205,0-3.998-1.773-3.998-3.986
					c0-2.195,1.792-3.998,3.998-3.998C150.337,540.321,152.151,542.124,152.151,544.319z"/>
			</g>
		</g>
		<g>
			<rect x="276.951" y="516.973" fill="#F7931E" width="96.335" height="0.777"/>
		</g>
		<g>
			<g>
				<path fill="#F7931E" d="M272.953,517.356c0-2.215,1.813-3.988,3.998-3.988c2.204,0,3.998,1.773,3.998,3.988
					c0,2.193-1.794,3.996-3.998,3.996C274.767,521.352,272.953,519.549,272.953,517.356z"/>
			</g>
		</g>
	</g>
	<g>
		<g>
			<g>
				<g>
					<g>
						<polygon fill="#F7931E" points="451.759,242.352 450.678,242.352 450.676,217.277 420.794,217.277 420.794,146.806 
							464.043,146.806 464.043,75.83 465.098,75.83 465.098,147.879 421.868,147.879 421.868,216.204 451.757,216.204 						"/>
					</g>
				</g>
			</g>
			<g>
				<g>
					<g>
						<path fill="#F7931E" d="M464.572,78.677c-1.581,0-2.857-1.267-2.857-2.847c0-1.56,1.276-2.845,2.857-2.845
							c1.579,0,2.855,1.285,2.855,2.845C467.427,77.41,466.151,78.677,464.572,78.677z"/>
					</g>
				</g>
			</g>
			<g>
				<g>
					<g>
						<path fill="#F7931E" d="M464.572,149.83c-1.581,0-2.857-1.269-2.857-2.847c0-1.56,1.276-2.829,2.857-2.829
							c1.579,0,2.855,1.269,2.855,2.829C467.427,148.562,466.151,149.83,464.572,149.83z"/>
					</g>
				</g>
			</g>
			<g>
				<g>
					<g>
						<path fill="#F7931E" d="M451.234,244.303c-1.277,0-2.33-1.034-2.33-2.321c0-1.267,1.053-2.3,2.33-2.3
							c1.267,0,2.3,1.034,2.3,2.3C453.534,243.27,452.5,244.303,451.234,244.303z"/>
					</g>
				</g>
			</g>
			<g>
				<g>
					<g>
						<path fill="#F7931E" d="M420.463,149.693c-1.581,0-2.848-1.267-2.848-2.827c0-1.581,1.267-2.847,2.848-2.847
							c1.56,0,2.855,1.267,2.855,2.847C423.319,148.426,422.023,149.693,420.463,149.693z"/>
					</g>
				</g>
			</g>
			<g>
				<g>
					<g>
						<path fill="#F7931E" d="M421.339,219.929c-1.579,0-2.846-1.269-2.846-2.829c0-1.579,1.267-2.845,2.846-2.845
							c1.56,0,2.837,1.267,2.837,2.845C424.176,218.66,422.899,219.929,421.339,219.929z"/>
					</g>
				</g>
			</g>
			<g>
				<g>
					<g>
						<path fill="#F7931E" d="M450.882,218.855c-1.016,0-1.806-0.78-1.806-1.755c0-1.013,0.79-1.792,1.806-1.792
							c0.965,0,1.755,0.78,1.755,1.792C452.637,218.076,451.847,218.855,450.882,218.855z"/>
					</g>
				</g>
			</g>
		</g>
		<g>
			<g>
				<path fill="#F7931E" d="M449.624,109.368c-2.39,0-4.299-1.93-4.299-4.289c0-2.379,1.909-4.31,4.299-4.31
					c2.369,0,4.302,1.93,4.302,4.31C453.925,107.438,451.993,109.368,449.624,109.368z"/>
			</g>
		</g>
		<g>
			<g>
				<polygon fill="#F7931E" points="448.863,139.865 448.863,106.56 449.624,106.56 449.624,139.125 460.836,139.125 
					460.836,144.389 464.22,146.494 463.821,147.139 460.096,144.799 460.096,139.865 				"/>
			</g>
		</g>
		<g>
			<g>
				<polygon fill="#F7931E" points="451.234,242.49 451.234,241.747 470.82,241.747 470.82,188.612 456.498,188.612 
					456.498,187.872 471.571,187.872 471.571,242.49 				"/>
			</g>
		</g>
		<g>
			<rect x="328.677" y="239.139" fill="#F7931E" width="84.481" height="1.065"/>
		</g>
		<g>
			<rect x="328.145" y="211.273" fill="#F7931E" width="1.065" height="28.398"/>
		</g>
		<g>
			<rect x="328.677" y="210.741" fill="#F7931E" width="56.086" height="1.064"/>
		</g>
		<g>
			<rect x="384.231" y="43.062" fill="#F7931E" width="1.064" height="168.211"/>
		</g>
		<g>
			<rect x="302.41" y="42.529" fill="#F7931E" width="82.353" height="1.065"/>
		</g>
		<g>
			<g>
				<path fill="#F7931E" d="M413.155,243.669c-2.213,0-3.987-1.814-3.987-3.998c0-2.205,1.774-3.998,3.987-3.998
					c2.194,0,3.997,1.793,3.997,3.998C417.152,241.855,415.349,243.669,413.155,243.669z"/>
			</g>
		</g>
		<g>
			<g>
				<path fill="#F7931E" d="M457.521,191.869c-2.213,0-3.987-1.814-3.987-3.998c0-2.205,1.774-3.998,3.987-3.998
					c2.194,0,3.998,1.793,3.998,3.998C461.519,190.055,459.715,191.869,457.521,191.869z"/>
			</g>
		</g>
		<g>
			<g>
				<path fill="#F7931E" d="M471.843,191.869c-2.213,0-3.987-1.814-3.987-3.998c0-2.205,1.774-3.998,3.987-3.998
					c2.194,0,3.997,1.793,3.997,3.998C475.84,190.055,474.038,191.869,471.843,191.869z"/>
			</g>
		</g>
		<g>
			<g>
				<path fill="#F7931E" d="M471.564,245.99c-2.213,0-3.986-1.814-3.986-3.998c0-2.205,1.773-3.998,3.986-3.998
					c2.194,0,3.998,1.792,3.998,3.998C475.562,244.176,473.758,245.99,471.564,245.99z"/>
			</g>
		</g>
		<g>
			<g>
				<path fill="#F7931E" d="M329.528,243.669c-2.213,0-3.987-1.814-3.987-3.998c0-2.205,1.774-3.998,3.987-3.998
					c2.194,0,3.998,1.793,3.998,3.998C333.525,241.855,331.722,243.669,329.528,243.669z"/>
			</g>
		</g>
		<g>
			<g>
				<path fill="#F7931E" d="M328.672,215.271c-2.213,0-3.987-1.813-3.987-3.998c0-2.204,1.774-3.998,3.987-3.998
					c2.194,0,3.998,1.794,3.998,3.998C332.669,213.458,330.866,215.271,328.672,215.271z"/>
			</g>
		</g>
		<g>
			<g>
				<path fill="#F7931E" d="M384.756,47.06c-2.213,0-3.986-1.814-3.986-3.998c0-2.204,1.773-3.998,3.986-3.998
					c2.195,0,3.998,1.794,3.998,3.998C388.754,45.246,386.952,47.06,384.756,47.06z"/>
			</g>
		</g>
		<g>
			<g>
				<path fill="#F7931E" d="M302.405,47.06c-2.213,0-3.987-1.814-3.987-3.998c0-2.204,1.774-3.998,3.987-3.998
					c2.194,0,3.998,1.794,3.998,3.998C306.402,45.246,304.599,47.06,302.405,47.06z"/>
			</g>
		</g>
		<g>
			<g>
				<g>
					<g>
						<g>
							<polygon fill="#F7931E" points="340.064,277.188 340.063,178.406 400.665,178.406 400.665,78.903 402.156,78.903 
								402.156,179.927 341.555,179.927 341.556,275.708 383.459,275.708 383.459,312.344 381.947,312.344 381.947,277.188 							
								"/>
						</g>
					</g>
				</g>
				<g>
					<g>
						<g>
							<path fill="#F7931E" d="M401.406,82.9c-2.191,0-3.986-1.774-3.986-3.998c0-2.184,1.795-3.978,3.986-3.978
								c2.194,0,3.997,1.794,3.997,3.978C405.403,81.126,403.6,82.9,401.406,82.9z"/>
						</g>
					</g>
				</g>
				<g>
					<g>
						<g>
							<path fill="#F7931E" d="M401.406,182.677c-2.191,0-3.986-1.813-3.986-3.998c0-2.204,1.795-3.998,3.986-3.998
								c2.194,0,3.997,1.794,3.997,3.998C405.403,180.863,403.6,182.677,401.406,182.677z"/>
						</g>
					</g>
				</g>
				<g>
					<g>
						<g>
							<path fill="#F7931E" d="M382.716,315.116c-1.804,0-3.245-1.482-3.245-3.258c0-1.793,1.441-3.236,3.245-3.236
								c1.776,0,3.228,1.443,3.228,3.236C385.944,313.633,384.493,315.116,382.716,315.116z"/>
						</g>
					</g>
				</g>
				<g>
					<g>
						<g>
							<path fill="#F7931E" d="M340.804,182.677c-2.213,0-3.987-1.813-3.987-3.998c0-2.204,1.774-3.998,3.987-3.998
								c2.194,0,3.998,1.794,3.998,3.998C344.802,180.863,342.999,182.677,340.804,182.677z"/>
						</g>
					</g>
				</g>
				<g>
					<g>
						<g>
							<path fill="#F7931E" d="M340.805,280.933c-2.213,0-3.987-1.793-3.987-3.998c0-2.203,1.774-3.995,3.987-3.995
								c2.194,0,3.998,1.792,3.998,3.995C344.803,279.14,343,280.933,340.805,280.933z"/>
						</g>
					</g>
				</g>
				<g>
					<g>
						<g>
							<path fill="#F7931E" d="M382.19,279.431c-1.364,0-2.485-1.111-2.485-2.496c0-1.364,1.121-2.496,2.485-2.496
								c1.404,0,2.496,1.132,2.496,2.496C384.686,278.319,383.594,279.431,382.19,279.431z"/>
						</g>
					</g>
				</g>
			</g>
			<g>
				<g>
					<g>
						<g>
							<g>
								<polygon fill="#F7931E" points="402.331,78.571 402.331,79.234 386.45,79.234 386.45,98.167 341.857,98.167 341.857,70.811 
									296.911,70.811 296.911,70.108 342.519,70.108 342.519,97.485 385.789,97.485 385.789,78.571 								"/>
							</g>
						</g>
					</g>
				</g>
				<g>
					<g>
						<g>
							<g>
								<path fill="#F7931E" d="M298.706,70.459c0,1.014-0.82,1.794-1.795,1.794c-0.995,0-1.833-0.78-1.833-1.794
									c0-1.014,0.838-1.794,1.833-1.794C297.886,68.666,298.706,69.445,298.706,70.459z"/>
							</g>
						</g>
					</g>
				</g>
				<g>
					<g>
						<g>
							<g>
								<path fill="#F7931E" d="M343.748,70.459c0,1.014-0.78,1.794-1.793,1.794c-0.996,0-1.795-0.78-1.795-1.794
									c0-1.014,0.799-1.794,1.795-1.794C342.968,68.666,343.748,69.445,343.748,70.459z"/>
							</g>
						</g>
					</g>
				</g>
				<g>
					<g>
						<g>
							<g>
								<path fill="#F7931E" d="M403.579,78.903c0,0.818-0.661,1.482-1.473,1.482c-0.798,0-1.441-0.664-1.441-1.482
									c0-0.8,0.644-1.463,1.441-1.463C402.917,77.439,403.579,78.103,403.579,78.903z"/>
							</g>
						</g>
					</g>
				</g>
				<g>
					<g>
						<g>
							<g>
								<path fill="#F7931E" d="M343.748,97.836c0,0.995-0.78,1.794-1.793,1.794c-0.996,0-1.795-0.799-1.795-1.794
									c0-1.014,0.799-1.794,1.795-1.794C342.968,96.042,343.748,96.822,343.748,97.836z"/>
							</g>
						</g>
					</g>
				</g>
				<g>
					<g>
						<g>
							<g>
								<path fill="#F7931E" d="M388.167,97.836c0,0.995-0.818,1.794-1.814,1.794c-0.994,0-1.793-0.799-1.793-1.794
									c0-1.014,0.799-1.794,1.793-1.794C387.348,96.042,388.167,96.822,388.167,97.836z"/>
							</g>
						</g>
					</g>
				</g>
				<g>
					<g>
						<g>
							<g>
								<path fill="#F7931E" d="M387.465,79.155c0,0.605-0.508,1.092-1.113,1.092c-0.643,0-1.15-0.486-1.15-1.092
									c0-0.643,0.508-1.15,1.15-1.15C386.958,78.005,387.465,78.513,387.465,79.155z"/>
							</g>
						</g>
					</g>
				</g>
			</g>
			<g>
				<g>
					<g>
						<polyline fill="#F7931E" points="330.625,238.97 330.626,278.378 340.541,278.378 340.541,279.491 329.534,279.491 
							329.533,240.101 						"/>
					</g>
				</g>
			</g>
		</g>
	</g>
	<g>
		<g>
			<g>
				<g>
					<polygon fill="#F7931E" points="354.587,311.042 353.106,311.042 353.106,346.217 311.203,346.208 311.203,444.961 
						371.786,444.961 371.786,544.495 373.288,544.495 373.288,443.469 312.683,443.469 312.683,347.719 354.587,347.729 					"/>
				</g>
			</g>
			<g>
				<g>
					<path fill="#F7931E" d="M372.547,540.499c-2.205,0-3.998,1.773-3.998,3.996c0,2.193,1.793,3.988,3.998,3.988
						c2.184,0,3.997-1.795,3.997-3.988C376.544,542.272,374.731,540.499,372.547,540.499z"/>
				</g>
			</g>
			<g>
				<g>
					<path fill="#F7931E" d="M372.547,440.731c-2.205,0-3.998,1.773-3.998,3.996c0,2.213,1.793,3.988,3.998,3.988
						c2.184,0,3.997-1.775,3.997-3.988C376.544,442.504,374.731,440.731,372.547,440.731z"/>
				</g>
			</g>
			<g>
				<g>
					<path fill="#F7931E" d="M353.847,308.311c-1.793,0-3.257,1.463-3.257,3.236c0,1.795,1.464,3.238,3.257,3.238
						c1.755,0,3.257-1.443,3.257-3.238C357.104,309.774,355.602,308.311,353.847,308.311z"/>
				</g>
			</g>
			<g>
				<g>
					<path fill="#F7931E" d="M311.943,440.731c-2.203,0-3.998,1.773-3.998,3.996c0,2.213,1.795,3.988,3.998,3.988
						c2.184,0,3.998-1.775,3.998-3.988C315.94,442.504,314.127,440.731,311.943,440.731z"/>
				</g>
			</g>
			<g>
				<g>
					<path fill="#F7931E" d="M311.943,342.454c-2.203,0-3.998,1.805-3.998,3.998c0,2.213,1.795,3.988,3.998,3.988
						c2.184,0,3.998-1.766,3.998-3.979C315.94,344.268,314.127,342.454,311.943,342.454z"/>
				</g>
			</g>
			<g>
				<g>
					<path fill="#F7931E" d="M353.32,343.975c-1.364,0-2.496,1.121-2.496,2.486c0,1.404,1.132,2.496,2.496,2.496
						c1.404,0,2.496-1.092,2.496-2.496C355.816,345.096,354.724,343.975,353.32,343.975z"/>
				</g>
			</g>
		</g>
		<g>
			<g>
				<g>
					<g>
						<polygon fill="#F7931E" points="606.009,582.028 606.009,544.397 674.333,544.397 674.333,574.29 700.482,574.29 
							700.482,573.209 675.407,573.208 675.407,543.325 604.936,543.325 604.936,582.028 						"/>
					</g>
				</g>
			</g>
			<g>
				<g>
					<g>
						<path fill="#F7931E" d="M702.433,573.764c0-1.277-1.034-2.33-2.321-2.33c-1.267,0-2.301,1.053-2.301,2.33
							c0,1.266,1.034,2.301,2.301,2.301C701.399,576.065,702.433,575.03,702.433,573.764z"/>
					</g>
				</g>
			</g>
			<g>
				<g>
					<g>
						<path fill="#F7931E" d="M607.823,542.995c0-1.58-1.267-2.848-2.827-2.848c-1.58,0-2.847,1.268-2.847,2.848
							c0,1.559,1.267,2.855,2.847,2.855C606.556,545.85,607.823,544.553,607.823,542.995z"/>
					</g>
				</g>
			</g>
			<g>
				<g>
					<g>
						<path fill="#F7931E" d="M678.058,543.87c0-1.578-1.269-2.846-2.828-2.846c-1.579,0-2.846,1.268-2.846,2.846
							c0,1.561,1.267,2.838,2.846,2.838C676.79,546.708,678.058,545.43,678.058,543.87z"/>
					</g>
				</g>
			</g>
			<g>
				<g>
					<g>
						<path fill="#F7931E" d="M676.986,573.413c0-1.014-0.78-1.805-1.756-1.805c-1.013,0-1.793,0.791-1.793,1.805
							c0,0.965,0.78,1.756,1.793,1.756C676.206,575.168,676.986,574.377,676.986,573.413z"/>
					</g>
				</g>
			</g>
		</g>
		<g>
			<g>
				<rect x="461.052" y="571.784" fill="#F7931E" width="102.156" height="0.75"/>
			</g>
		</g>
		<g>
			<g>
				<path fill="#F7931E" d="M567.498,572.155c0-2.389-1.93-4.301-4.289-4.301c-2.379,0-4.31,1.912-4.31,4.301
					c0,2.369,1.931,4.301,4.31,4.301C565.568,576.456,567.498,574.524,567.498,572.155z"/>
			</g>
		</g>
		<g>
			<g>
				<polygon fill="#F7931E" points="440.248,542.36 372.058,542.36 372.058,543.11 439.505,543.11 439.505,572.534 461.052,572.534 
					461.052,571.784 440.248,571.784 				"/>
			</g>
		</g>
		<g>
			<g>
				<polygon fill="#F7931E" points="597.254,582.028 597.996,582.028 597.996,571.393 564.69,571.393 564.69,572.155 
					597.254,572.155 				"/>
			</g>
		</g>
		<g>
			<g>
				<rect x="699.876" y="573.764" fill="#F7931E" width="0.743" height="8.264"/>
			</g>
		</g>
		<g>
			<rect x="697.801" y="535.159" fill="#F7931E" width="122.928" height="1.064"/>
		</g>
		<g>
			<rect x="697.268" y="451.208" fill="#F7931E" width="1.065" height="84.482"/>
		</g>
		<g>
			<rect x="669.403" y="450.674" fill="#F7931E" width="28.398" height="1.064"/>
		</g>
		<g>
			<rect x="668.871" y="451.208" fill="#F7931E" width="1.064" height="56.084"/>
		</g>
		<g>
			<rect x="501.192" y="506.76" fill="#F7931E" width="168.211" height="1.064"/>
		</g>
		<g>
			<rect x="500.659" y="424.94" fill="#F7931E" width="1.065" height="82.352"/>
		</g>
		<g>
			<rect x="320.824" y="424.407" fill="#F7931E" width="180.368" height="1.066"/>
		</g>
		<g>
			<g>
				<path fill="#F7931E" d="M701.798,535.686c0-2.215-1.813-3.988-3.997-3.988c-2.205,0-3.998,1.773-3.998,3.988
					c0,2.193,1.793,3.996,3.998,3.996C699.985,539.682,701.798,537.879,701.798,535.686z"/>
			</g>
		</g>
		<g>
			<g>
				<path fill="#F7931E" d="M649.449,582.028c0.34-0.588,0.55-1.256,0.55-1.977c0-2.213-1.813-3.986-3.997-3.986
					c-2.205,0-3.998,1.773-3.998,3.986c0,0.721,0.208,1.389,0.546,1.977H649.449z"/>
			</g>
		</g>
		<g>
			<g>
				<path fill="#F7931E" d="M443.927,572.53c0-2.213-1.814-3.988-3.998-3.988c-2.205,0-3.997,1.775-3.997,3.988
					c0,2.193,1.792,3.998,3.997,3.998C442.113,576.528,443.927,574.723,443.927,572.53z"/>
			</g>
		</g>
		<g>
			<g>
				<path fill="#F7931E" d="M701.798,451.202c0-2.213-1.813-3.986-3.997-3.986c-2.205,0-3.998,1.773-3.998,3.986
					c0,2.195,1.793,3.998,3.998,3.998C699.985,455.2,701.798,453.397,701.798,451.202z"/>
			</g>
		</g>
		<g>
			<g>
				<path fill="#F7931E" d="M673.401,451.202c0-2.213-1.813-3.986-3.998-3.986c-2.203,0-3.997,1.773-3.997,3.986
					c0,2.195,1.794,3.998,3.997,3.998C671.587,455.2,673.401,453.397,673.401,451.202z"/>
			</g>
		</g>
		<g>
			<g>
				<path fill="#F7931E" d="M505.189,507.288c0-2.213-1.813-3.988-3.997-3.988c-2.204,0-3.998,1.775-3.998,3.988
					c0,2.193,1.794,3.998,3.998,3.998C503.375,511.286,505.189,509.481,505.189,507.288z"/>
			</g>
		</g>
		<g>
			<g>
				<path fill="#F7931E" d="M505.189,424.934c0-2.213-1.813-3.986-3.997-3.986c-2.204,0-3.998,1.773-3.998,3.986
					c0,2.195,1.794,3.998,3.998,3.998C503.375,428.932,505.189,427.129,505.189,424.934z"/>
			</g>
		</g>
		<g>
			<g>
				<path fill="#F7931E" d="M324.822,424.934c0-2.213-1.814-3.986-3.998-3.986c-2.204,0-3.998,1.773-3.998,3.986
					c0,2.195,1.794,3.998,3.998,3.998C323.008,428.932,324.822,427.129,324.822,424.934z"/>
			</g>
		</g>
		<g>
			<rect x="25.848" y="270.186" fill="#F7931E" width="51.507" height="0.569"/>
		</g>
		<g>
			<g>
				<path fill="#F7931E" d="M81.354,270.466c0-2.214-1.813-3.988-3.998-3.988c-2.204,0-3.998,1.774-3.998,3.988
					c0,2.193,1.794,3.997,3.998,3.997C79.541,274.463,81.354,272.659,81.354,270.466z"/>
			</g>
		</g>
		<g>
			<rect x="25.849" y="295.104" fill="#F7931E" width="96.335" height="0.779"/>
		</g>
		<g>
			<g>
				<path fill="#F7931E" d="M126.182,295.489c0-2.213-1.813-3.988-3.998-3.988c-2.204,0-3.998,1.775-3.998,3.988
					c0,2.193,1.794,3.998,3.998,3.998C124.369,299.487,126.182,297.682,126.182,295.489z"/>
			</g>
		</g>
		<g>
			<g>
				<g>
					<g>
						<g>
							<polygon fill="#F7931E" points="735.318,462.594 636.536,462.594 636.536,523.196 537.033,523.196 537.033,524.688 
								638.057,524.688 638.057,464.084 733.836,464.086 733.836,505.989 770.474,505.989 770.474,504.477 735.318,504.477 							
								"/>
						</g>
					</g>
				</g>
				<g>
					<g>
						<g>
							<path fill="#F7931E" d="M541.03,523.936c0-2.193-1.774-3.988-3.997-3.988c-2.185,0-3.979,1.795-3.979,3.988
								s1.794,3.998,3.979,3.998C539.255,527.934,541.03,526.129,541.03,523.936z"/>
						</g>
					</g>
				</g>
				<g>
					<g>
						<g>
							<path fill="#F7931E" d="M640.806,523.936c0-2.193-1.813-3.988-3.997-3.988c-2.204,0-3.997,1.795-3.997,3.988
								s1.793,3.998,3.997,3.998C638.993,527.934,640.806,526.129,640.806,523.936z"/>
						</g>
					</g>
				</g>
				<g>
					<g>
						<g>
							<path fill="#F7931E" d="M773.244,505.247c0-1.803-1.482-3.244-3.257-3.244c-1.793,0-3.236,1.441-3.236,3.244
								c0,1.777,1.443,3.229,3.236,3.229C771.761,508.475,773.244,507.024,773.244,505.247z"/>
						</g>
					</g>
				</g>
				<g>
					<g>
						<g>
							<path fill="#F7931E" d="M640.806,463.334c0-2.213-1.813-3.988-3.997-3.988c-2.204,0-3.997,1.775-3.997,3.988
								c0,2.193,1.793,3.996,3.997,3.996C638.993,467.331,640.806,465.528,640.806,463.334z"/>
						</g>
					</g>
				</g>
				<g>
					<g>
						<g>
							<path fill="#F7931E" d="M739.062,463.334c0-2.213-1.794-3.986-3.998-3.986c-2.203,0-3.996,1.773-3.996,3.986
								c0,2.195,1.793,3.998,3.996,3.998C737.268,467.333,739.062,465.53,739.062,463.334z"/>
						</g>
					</g>
				</g>
				<g>
					<g>
						<g>
							<path fill="#F7931E" d="M737.56,504.721c0-1.365-1.111-2.486-2.496-2.486c-1.365,0-2.495,1.121-2.495,2.486
								c0,1.404,1.13,2.496,2.495,2.496C736.449,507.217,737.56,506.125,737.56,504.721z"/>
						</g>
					</g>
				</g>
			</g>
			<g>
				<g>
					<g>
						<g>
							<polygon fill="#F7931E" points="740.31,303.715 738.808,303.715 738.808,338.893 696.906,338.891 696.906,437.645 
								757.527,437.645 757.527,537.149 759.029,537.149 759.029,436.133 698.426,436.133 698.426,340.372 740.31,340.374 							
								"/>
						</g>
					</g>
				</g>
				<g>
					<g>
						<g>
							<path fill="#F7931E" d="M758.269,533.151c-2.204,0-3.979,1.803-3.979,3.998c0,2.193,1.775,3.996,3.979,3.996
								c2.202,0,3.977-1.803,3.977-3.996C762.246,534.954,760.471,533.151,758.269,533.151z"/>
						</g>
					</g>
				</g>
				<g>
					<g>
						<g>
							<path fill="#F7931E" d="M758.269,433.413c-2.204,0-3.979,1.775-3.979,3.988c0,2.193,1.775,3.998,3.979,3.998
								c2.202,0,3.977-1.805,3.977-3.998C762.246,435.188,760.471,433.413,758.269,433.413z"/>
						</g>
					</g>
				</g>
				<g>
					<g>
						<g>
							<path fill="#F7931E" d="M739.549,300.987c-1.773,0-3.237,1.441-3.237,3.236c0,1.793,1.464,3.236,3.237,3.236
								c1.793,0,3.257-1.443,3.257-3.236C742.806,302.428,741.342,300.987,739.549,300.987z"/>
						</g>
					</g>
				</g>
				<g>
					<g>
						<g>
							<path fill="#F7931E" d="M697.665,433.413c-2.202,0-3.977,1.773-3.977,3.986c0,2.195,1.774,3.998,3.977,3.998
								c2.205,0,3.979-1.803,3.979-3.998C701.644,435.186,699.87,433.413,697.665,433.413z"/>
						</g>
					</g>
				</g>
				<g>
					<g>
						<g>
							<path fill="#F7931E" d="M697.665,335.147c-2.202,0-3.977,1.793-3.977,3.979c0,2.223,1.774,3.996,3.977,3.996
								c2.205,0,3.979-1.773,3.979-3.996C701.644,336.94,699.87,335.147,697.665,335.147z"/>
						</g>
					</g>
				</g>
				<g>
					<g>
						<g>
							<path fill="#F7931E" d="M739.062,336.649c-1.365,0-2.516,1.092-2.516,2.477s1.15,2.496,2.516,2.496
								c1.384,0,2.496-1.111,2.496-2.496S740.446,336.649,739.062,336.649z"/>
						</g>
					</g>
				</g>
			</g>
			<g>
				<g>
					<g>
						<g>
							<g>
								<polygon fill="#F7931E" points="536.701,524.862 537.364,524.862 537.364,508.981 556.297,508.981 556.297,464.387 
									528.941,464.387 528.941,419.44 528.238,419.44 528.238,465.049 555.615,465.049 555.615,508.319 536.701,508.317 								
									"/>
							</g>
						</g>
					</g>
				</g>
				<g>
					<g>
						<g>
							<g>
								<path fill="#F7931E" d="M528.589,421.235c1.014,0,1.793-0.818,1.793-1.795c0-0.994-0.779-1.832-1.793-1.832
									c-1.015,0-1.794,0.838-1.794,1.832C526.795,420.417,527.575,421.235,528.589,421.235z"/>
							</g>
						</g>
					</g>
				</g>
				<g>
					<g>
						<g>
							<g>
								<path fill="#F7931E" d="M528.589,466.278c1.014,0,1.793-0.779,1.793-1.793c0-0.996-0.779-1.795-1.793-1.795
									c-1.015,0-1.794,0.799-1.794,1.795C526.795,465.499,527.575,466.278,528.589,466.278z"/>
							</g>
						</g>
					</g>
				</g>
				<g>
					<g>
						<g>
							<g>
								<path fill="#F7931E" d="M537.033,526.11c0.818,0,1.481-0.662,1.481-1.473c0-0.799-0.663-1.441-1.481-1.441
									c-0.8,0-1.464,0.643-1.464,1.441C535.569,525.448,536.233,526.11,537.033,526.11z"/>
							</g>
						</g>
					</g>
				</g>
				<g>
					<g>
						<g>
							<g>
								<path fill="#F7931E" d="M555.965,466.278c0.995,0,1.794-0.779,1.794-1.793c0-0.996-0.799-1.795-1.794-1.795
									c-1.014,0-1.794,0.799-1.794,1.795C554.171,465.499,554.952,466.278,555.965,466.278z"/>
							</g>
						</g>
					</g>
				</g>
				<g>
					<g>
						<g>
							<g>
								<path fill="#F7931E" d="M555.965,510.696c0.995,0,1.794-0.816,1.794-1.813c0-0.994-0.799-1.793-1.794-1.793
									c-1.014,0-1.794,0.799-1.794,1.793C554.171,509.879,554.952,510.696,555.965,510.696z"/>
							</g>
						</g>
					</g>
				</g>
				<g>
					<g>
						<g>
							<g>
								<path fill="#F7931E" d="M537.285,509.995c0.605,0,1.092-0.508,1.092-1.111c0-0.645-0.486-1.15-1.092-1.15
									c-0.643,0-1.15,0.506-1.15,1.15C536.134,509.487,536.642,509.995,537.285,509.995z"/>
							</g>
						</g>
					</g>
				</g>
			</g>
			<g>
				<g>
					<g>
						<polygon fill="#F7931E" points="698.23,437.399 697.1,437.399 697.1,453.155 736.506,453.157 736.506,463.071 737.62,463.071 
							737.62,452.065 698.23,452.063 						"/>
					</g>
				</g>
			</g>
			<g>
				<g>
					<g>
						<polygon fill="#F7931E" points="770.338,435.782 758.269,435.782 758.269,436.524 769.598,436.524 769.598,505.247 
							770.338,505.247 						"/>
					</g>
				</g>
			</g>
			<g>
				<g>
					<g>
						<rect x="774.999" y="419.292" fill="#F7931E" width="45.73" height="1.066"/>
					</g>
				</g>
				<g>
					<g>
						<rect x="774.999" y="345.459" fill="#F7931E" width="45.73" height="1.064"/>
					</g>
				</g>
				<g>
					<g>
						<rect x="697.666" y="382.375" fill="#F7931E" width="77.333" height="1.066"/>
					</g>
				</g>
				<g>
					<g>
						<rect x="696.906" y="307.122" fill="#F7931E" width="78.093" height="1.066"/>
					</g>
				</g>
				<g>
					<g>
						<rect x="696.373" y="266.478" fill="#F7931E" width="1.065" height="72.414"/>
					</g>
				</g>
				<g>
					<g>
						<rect x="618.813" y="265.946" fill="#F7931E" width="78.093" height="1.064"/>
					</g>
				</g>
				<g>
					<g>
						<rect x="618.281" y="266.478" fill="#F7931E" width="1.064" height="78.804"/>
					</g>
				</g>
				<g>
					<g>
						<rect x="584.025" y="307.122" fill="#F7931E" width="70.994" height="1.066"/>
					</g>
				</g>
				<g>
					<g>
						<rect x="583.493" y="307.655" fill="#F7931E" width="1.065" height="71.703"/>
					</g>
				</g>
				<g>
					<g>
						<rect x="546.399" y="344.749" fill="#F7931E" width="71.882" height="1.064"/>
					</g>
				</g>
				<g>
					<g>
						<rect x="545.867" y="345.282" fill="#F7931E" width="1.064" height="74.543"/>
					</g>
				</g>
				<g>
					<g>
						<rect x="546.399" y="419.292" fill="#F7931E" width="72.414" height="1.066"/>
					</g>
				</g>
				<g>
					<g>
						<rect x="774.466" y="307.655" fill="#F7931E" width="1.064" height="75.254"/>
					</g>
				</g>
			</g>
			<g>
				<g>
					<g>
						<path fill="#F7931E" d="M778.996,420.426c0-2.213-1.813-3.986-3.997-3.986c-2.203,0-3.998,1.773-3.998,3.986
							c0,2.195,1.795,3.998,3.998,3.998C777.182,424.424,778.996,422.622,778.996,420.426z"/>
					</g>
				</g>
			</g>
			<g>
				<g>
					<g>
						<path fill="#F7931E" d="M778.996,382.547c0-2.213-1.813-3.986-3.997-3.986c-2.203,0-3.998,1.773-3.998,3.986
							c0,2.195,1.795,3.998,3.998,3.998C777.182,386.545,778.996,384.743,778.996,382.547z"/>
					</g>
				</g>
			</g>
			<g>
				<g>
					<g>
						<path fill="#F7931E" d="M701.664,382.547c0-2.213-1.814-3.986-3.998-3.986c-2.203,0-3.997,1.773-3.997,3.986
							c0,2.195,1.794,3.998,3.997,3.998C699.849,386.545,701.664,384.743,701.664,382.547z"/>
					</g>
				</g>
			</g>
			<g>
				<g>
					<g>
						<path fill="#F7931E" d="M778.996,345.987c0-2.213-1.813-3.988-3.997-3.988c-2.203,0-3.998,1.775-3.998,3.988
							c0,2.193,1.795,3.996,3.998,3.996C777.182,349.983,778.996,348.18,778.996,345.987z"/>
					</g>
				</g>
			</g>
			<g>
				<g>
					<g>
						<path fill="#F7931E" d="M778.996,307.454c0-2.213-1.813-3.986-3.997-3.986c-2.203,0-3.998,1.773-3.998,3.986
							c0,2.195,1.795,3.998,3.998,3.998C777.182,311.452,778.996,309.649,778.996,307.454z"/>
					</g>
				</g>
			</g>
			<g>
				<g>
					<g>
						<path fill="#F7931E" d="M659.017,307.454c0-2.213-1.813-3.986-3.998-3.986c-2.203,0-3.997,1.773-3.997,3.986
							c0,2.195,1.794,3.998,3.997,3.998C657.204,311.452,659.017,309.649,659.017,307.454z"/>
					</g>
				</g>
			</g>
			<g>
				<g>
					<g>
						<path fill="#F7931E" d="M700.903,266.473c0-2.213-1.813-3.987-3.997-3.987c-2.204,0-3.998,1.774-3.998,3.987
							c0,2.194,1.794,3.997,3.998,3.997C699.089,270.47,700.903,268.667,700.903,266.473z"/>
					</g>
				</g>
			</g>
			<g>
				<g>
					<g>
						<path fill="#F7931E" d="M623.519,266.473c0-2.213-1.813-3.987-3.997-3.987c-2.202,0-3.997,1.774-3.997,3.987
							c0,2.194,1.795,3.997,3.997,3.997C621.706,270.47,623.519,268.667,623.519,266.473z"/>
					</g>
				</g>
			</g>
			<g>
				<g>
					<g>
						<path fill="#F7931E" d="M622.81,307.454c0-2.213-1.813-3.986-3.997-3.986c-2.204,0-3.998,1.773-3.998,3.986
							c0,2.195,1.794,3.998,3.998,3.998C620.997,311.452,622.81,309.649,622.81,307.454z"/>
					</g>
				</g>
			</g>
			<g>
				<g>
					<g>
						<path fill="#F7931E" d="M622.81,345.309c0-2.215-1.813-3.988-3.997-3.988c-2.204,0-3.998,1.773-3.998,3.988
							c0,2.193,1.794,3.996,3.998,3.996C620.997,349.305,622.81,347.502,622.81,345.309z"/>
					</g>
				</g>
			</g>
			<g>
				<g>
					<g>
						<path fill="#F7931E" d="M588.023,345.987c0-2.213-1.813-3.988-3.998-3.988c-2.203,0-3.997,1.775-3.997,3.988
							c0,2.193,1.794,3.996,3.997,3.996C586.209,349.983,588.023,348.18,588.023,345.987z"/>
					</g>
				</g>
			</g>
			<g>
				<g>
					<g>
						<path fill="#F7931E" d="M587.407,378.555c0-2.213-1.814-3.986-3.998-3.986c-2.204,0-3.997,1.773-3.997,3.986
							c0,2.195,1.793,3.998,3.997,3.998C585.592,382.553,587.407,380.75,587.407,378.555z"/>
					</g>
				</g>
			</g>
			<g>
				<g>
					<g>
						<path fill="#F7931E" d="M588.023,307.649c0-2.213-1.813-3.986-3.998-3.986c-2.203,0-3.997,1.773-3.997,3.986
							c0,2.195,1.794,3.998,3.997,3.998C586.209,311.647,588.023,309.844,588.023,307.649z"/>
					</g>
				</g>
			</g>
			<g>
				<g>
					<g>
						<path fill="#F7931E" d="M550.397,345.987c0-2.213-1.813-3.988-3.998-3.988c-2.203,0-3.997,1.775-3.997,3.988
							c0,2.193,1.794,3.996,3.997,3.996C548.583,349.983,550.397,348.18,550.397,345.987z"/>
					</g>
				</g>
			</g>
			<g>
				<g>
					<g>
						<path fill="#F7931E" d="M550.397,419.819c0-2.213-1.813-3.986-3.998-3.986c-2.203,0-3.997,1.773-3.997,3.986
							c0,2.195,1.794,3.998,3.997,3.998C548.583,423.817,550.397,422.014,550.397,419.819z"/>
					</g>
				</g>
			</g>
			<g>
				<g>
					<g>
						<path fill="#F7931E" d="M622.81,419.819c0-2.213-1.813-3.986-3.997-3.986c-2.204,0-3.998,1.773-3.998,3.986
							c0,2.195,1.794,3.998,3.998,3.998C620.997,423.817,622.81,422.014,622.81,419.819z"/>
					</g>
				</g>
			</g>
		</g>
		<g>
			<rect x="25.848" y="310.51" fill="#F7931E" width="328.739" height="1.064"/>
		</g>
	</g>
</g>
</svg>
